G04 DipTrace 3.0.0.2*
G04 BottomMask.gbs*
%MOIN*%
G04 #@! TF.FileFunction,Soldermask,Bot*
G04 #@! TF.Part,Single*
%ADD34C,0.098425*%
%ADD44C,0.072993*%
%ADD46C,0.279686*%
%ADD52C,0.067087*%
%ADD54R,0.074961X0.074961*%
%ADD56C,0.118268*%
%ADD58R,0.118268X0.118268*%
%ADD62R,0.067087X0.067087*%
%ADD64C,0.067087*%
%ADD66C,0.071024*%
%ADD68R,0.071024X0.071024*%
%ADD70C,0.080867*%
%ADD72R,0.080867X0.080867*%
%ADD74C,0.074961*%
%FSLAX26Y26*%
G04*
G70*
G90*
G75*
G01*
G04 BotMask*
%LPD*%
D74*
X2755906Y1259843D3*
Y1359843D3*
Y1459843D3*
Y1559843D3*
Y1659843D3*
Y1759843D3*
Y1859843D3*
Y1959843D3*
Y2059843D3*
Y2159843D3*
Y2259843D3*
Y2359843D3*
Y2459843D3*
Y2559843D3*
Y2659843D3*
Y2759843D3*
Y2859843D3*
Y2959843D3*
Y3059843D3*
X2655906D3*
Y2959843D3*
Y2859843D3*
Y2759843D3*
Y2659843D3*
Y2559843D3*
Y2459843D3*
Y2359843D3*
Y2259843D3*
Y2159843D3*
Y2059843D3*
Y1959843D3*
Y1859843D3*
Y1759843D3*
Y1659843D3*
Y1559843D3*
Y1459843D3*
Y1359843D3*
Y1259843D3*
X355906D3*
Y1359843D3*
Y1459843D3*
Y1559843D3*
Y1659843D3*
Y1759843D3*
Y1859843D3*
Y1959843D3*
Y2059843D3*
Y2159843D3*
Y2259843D3*
Y2359843D3*
Y2459843D3*
Y2559843D3*
Y2659843D3*
Y2759843D3*
Y2859843D3*
Y2959843D3*
Y3059843D3*
X255906D3*
Y2959843D3*
Y2859843D3*
Y2759843D3*
Y2659843D3*
Y2559843D3*
Y2459843D3*
Y2359843D3*
Y2259843D3*
Y2159843D3*
Y2059843D3*
Y1959843D3*
Y1859843D3*
Y1759843D3*
Y1659843D3*
Y1559843D3*
Y1459843D3*
Y1359843D3*
Y1259843D3*
Y159843D3*
X2755906D3*
Y259843D3*
X255906D3*
D72*
X3011811Y236220D3*
D70*
X3208661D3*
D68*
X2303150Y1200787D3*
D66*
Y1800787D3*
D64*
X3858268Y649606D3*
D62*
X3758268D3*
D64*
X3858268Y807087D3*
D62*
X3758268D3*
D64*
X3858268Y964567D3*
D62*
X3758268D3*
D58*
X1929134Y885827D3*
D56*
X1187402D3*
D54*
X1318898Y551181D3*
D74*
X1418898D3*
X1518898D3*
D54*
X1771654D3*
D74*
X1871654D3*
X1971654D3*
D54*
X2125984Y2696850D3*
D74*
X2025984D3*
X1925984D3*
D54*
X2500000D3*
D74*
X2400000D3*
X2300000D3*
D62*
X59055Y728346D3*
D52*
Y828346D3*
Y928346D3*
Y1028346D3*
Y1128346D3*
Y1228346D3*
Y1328346D3*
X2952756Y2066929D3*
Y1966929D3*
Y1866929D3*
Y1766929D3*
Y1666929D3*
Y1566929D3*
Y1466929D3*
Y1366929D3*
X3852756Y2066929D3*
Y1966929D3*
Y1866929D3*
Y1766929D3*
Y1666929D3*
Y1566929D3*
Y1466929D3*
Y1366929D3*
D62*
X59055Y1653543D3*
D52*
Y1753543D3*
Y1853543D3*
Y1953543D3*
Y2053543D3*
Y2153543D3*
Y2253543D3*
Y2353543D3*
Y2453543D3*
Y2553543D3*
D64*
X984252Y2952756D3*
X884252D3*
X784252D3*
X684252D3*
D54*
X1299213Y2696850D3*
D74*
X1199213D3*
D54*
X964567Y551181D3*
D74*
X1064567D3*
D54*
X2086614Y1200787D3*
D74*
X1926772Y1267717D3*
X2086614Y1334646D3*
X1926772Y1401575D3*
X2086633Y1468504D3*
D46*
X1316496Y1334646D3*
D54*
X3444882Y2500000D3*
D74*
Y2600000D3*
D54*
X3248031Y2637795D3*
D74*
X3148031D3*
X3048031D3*
X2948031D3*
D54*
X1751969Y2696850D3*
D74*
X1651969D3*
X1551969D3*
X1451969D3*
D44*
X3425197Y649606D3*
X3041339D3*
X3425197Y807087D3*
X3041339D3*
X3425197Y964567D3*
X3041339D3*
D34*
X118110Y2814961D3*
X3346457D3*
X118110Y413386D3*
X3346457D3*
M02*
