M48
INCH
T01C0.0191
T02C0.035
T03C0.0354
T04C0.0394
T05C0.0433
T06C0.0669
T07C0.0984
T08C0.1654
%
T01
X+034449Y+019094
X+037008Y+019488
X+037008Y+016732
X+034449Y+016339
X+028543Y+013386
X+028543Y+010630
X+007087Y+006890
X+006496Y+006496
X+005118Y+008858
X+003543Y+007874
X+002756Y+006496
X+002362Y+010827
T02
X+038583Y+006496
X+037583Y+006496
X+037583Y+008071
X+038583Y+008071
X+038583Y+009646
X+037583Y+009646
T03
X+023031Y+012008
X+023031Y+018008
X+029528Y+017669
X+029528Y+018669
X+029528Y+019669
X+029528Y+020669
X+029528Y+016669
X+029528Y+015669
X+029528Y+014669
X+029528Y+013669
X+038528Y+013669
X+038528Y+014669
X+038528Y+015669
X+038528Y+016669
X+038528Y+017669
X+038528Y+018669
X+038528Y+019669
X+038528Y+020669
X+009843Y+029528
X+008843Y+029528
X+007843Y+029528
X+006843Y+029528
X+000591Y+025535
X+000591Y+024535
X+000591Y+023535
X+000591Y+022535
X+000591Y+021535
X+000591Y+020535
X+000591Y+019535
X+000591Y+018535
X+000591Y+017535
X+000591Y+016535
X+000591Y+013283
X+000591Y+012283
X+000591Y+011283
X+000591Y+010283
X+000591Y+009283
X+000591Y+008283
X+000591Y+007283
T04
X+034252Y+006496
X+034252Y+008071
X+034252Y+009646
X+030413Y+009646
X+030413Y+008071
X+030413Y+006496
T05
X+027559Y+012598
X+027559Y+013598
X+026559Y+013598
X+026559Y+012598
X+026559Y+014598
X+026559Y+015598
X+026559Y+016598
X+026559Y+017598
X+027559Y+017598
X+027559Y+016598
X+027559Y+015598
X+027559Y+014598
X+027559Y+018598
X+026559Y+018598
X+026559Y+019598
X+026559Y+020598
X+027559Y+020598
X+027559Y+019598
X+027559Y+021598
X+026559Y+021598
X+026559Y+022598
X+026559Y+023598
X+027559Y+023598
X+027559Y+022598
X+027559Y+024598
X+026559Y+024598
X+026559Y+025598
X+027559Y+025598
X+027559Y+026598
X+026559Y+026598
X+026559Y+027598
X+026559Y+028598
X+026559Y+029598
X+027559Y+029598
X+027559Y+028598
X+027559Y+027598
X+029480Y+026378
X+030480Y+026378
X+031480Y+026378
X+032480Y+026378
X+034449Y+026000
X+034449Y+025000
X+027559Y+030598
X+026559Y+030598
X+025000Y+026969
X+024000Y+026969
X+023000Y+026969
X+021260Y+026969
X+020260Y+026969
X+019260Y+026969
X+017520Y+026969
X+016520Y+026969
X+015520Y+026969
X+014520Y+026969
X+012992Y+026969
X+011992Y+026969
X+003559Y+026598
X+002559Y+026598
X+002559Y+025598
X+002559Y+024598
X+003559Y+024598
X+003559Y+025598
X+003559Y+023598
X+002559Y+023598
X+002559Y+022598
X+002559Y+021598
X+003559Y+021598
X+003559Y+022598
X+003559Y+020598
X+002559Y+020598
X+002559Y+019598
X+002559Y+018598
X+003559Y+018598
X+003559Y+019598
X+003559Y+017598
X+002559Y+017598
X+002559Y+016598
X+002559Y+015598
X+002559Y+014598
X+003559Y+014598
X+003559Y+015598
X+003559Y+016598
X+003559Y+013598
X+003559Y+012598
X+002559Y+012598
X+002559Y+013598
X+009646Y+005512
X+010646Y+005512
X+013189Y+005512
X+014189Y+005512
X+015189Y+005512
X+017717Y+005512
X+018717Y+005512
X+019717Y+005512
X+020866Y+012008
X+020866Y+013346
X+020866Y+014685
X+019268Y+014016
X+019268Y+012677
X+027559Y+002598
X+027559Y+001598
X+030118Y+002362
X+032087Y+002362
X+002559Y+002598
X+002559Y+001598
X+002559Y+027598
X+002559Y+028598
X+003559Y+028598
X+003559Y+029598
X+002559Y+029598
X+002559Y+030598
X+003559Y+030598
X+003559Y+027598
T06
X+019291Y+008858
X+011874Y+008858
T07
X+001181Y+028150
X+001181Y+004134
X+033465Y+004134
X+033465Y+028150
T08
X+013165Y+013346
T00
M30
