G04 DipTrace 3.0.0.2*
G04 Top.gtl*
%MOIN*%
G04 #@! TF.FileFunction,Copper,L1,Top*
G04 #@! TF.Part,Single*
G04 #@! TA.AperFunction,Conductor*
%ADD13C,0.012992*%
G04 #@! TA.AperFunction,CopperBalancing*
%ADD14C,0.025*%
G04 #@! TA.AperFunction,ComponentPad*
%ADD16C,0.066929*%
%ADD17R,0.072835X0.072835*%
%ADD18C,0.072835*%
%ADD19R,0.062992X0.062992*%
%ADD20C,0.062992*%
%ADD21C,0.059055*%
%ADD22R,0.059055X0.059055*%
%ADD23R,0.141732X0.106299*%
G04 #@! TA.AperFunction,ComponentPad*
%ADD24R,0.110236X0.110236*%
%ADD25C,0.110236*%
%ADD26R,0.066929X0.066929*%
%ADD27C,0.059055*%
%ADD28R,0.031496X0.062992*%
%ADD29R,0.082677X0.11811*%
G04 #@! TA.AperFunction,ComponentPad*
%ADD30C,0.271654*%
%ADD31C,0.064961*%
G04 #@! TA.AperFunction,ViaPad*
%ADD32C,0.04*%
%FSLAX26Y26*%
G04*
G70*
G90*
G75*
G01*
G04 Top*
%LPD*%
X2716535Y551181D2*
D13*
Y531496D1*
X3011811Y236220D1*
X59055Y728346D2*
X467520Y295276D1*
X511811D1*
X3248031Y2637795D2*
Y1971654D1*
X3852756Y1366929D1*
X1751969Y2696850D2*
Y1576378D1*
X1926772Y1401575D1*
X59055Y728346D2*
X196850D1*
X275591Y649606D1*
X511811Y295276D2*
Y98425D1*
X531496Y78740D1*
X2244094D1*
X2716535Y551181D1*
X3852756Y1366929D2*
Y970079D1*
X3858268Y964567D1*
Y807087D1*
Y649606D1*
X3011811Y236220D2*
X3366142Y590551D1*
X3799213D1*
X3858268Y649606D1*
X1751969Y2696850D2*
Y2755906D1*
X2145669Y3149606D1*
X2795276D1*
X3248031Y2696850D1*
Y2637795D1*
X2500000Y2696850D2*
X2618898D1*
X2655906Y2659843D1*
X1929134Y885827D2*
X2708661D1*
X2716535Y877953D1*
X355906Y2259843D2*
X437008D1*
X561024Y2135827D1*
Y295276D1*
X610236D2*
Y2500000D1*
X452756Y2657480D1*
Y2762992D1*
X355906Y2859843D1*
X3700787Y1948819D2*
Y1673228D1*
X708661Y688976D2*
Y295276D1*
X59055Y1953543D2*
X74016D1*
X196850Y1830709D1*
Y1200787D1*
X369291Y1028346D1*
X511811Y885827D1*
X59055Y1028346D2*
X369291D1*
X659449Y295276D2*
Y649606D1*
X649606D1*
X59055Y928346D2*
X213386D1*
X354331Y787402D1*
X59055Y1853543D2*
X75591D1*
X157480Y1771654D1*
Y1161417D1*
X236220Y1082677D1*
X2854331Y1338583D2*
Y1062992D1*
X964567Y551181D2*
X984252D1*
X1476378Y1043307D1*
X1929134D1*
X2086614Y1200787D1*
X2303150D2*
X2322835D1*
X2086614D2*
X2303150D1*
X3444882Y2500000D2*
Y1909449D1*
X984252Y2952756D2*
X1043307D1*
X1299213Y2696850D1*
X3444882Y1633858D2*
Y1535433D1*
X2874016Y964567D1*
X2834646D1*
X2755906Y1043307D1*
X2460630D1*
X2303150Y1200787D1*
X2086614D2*
X1814609D1*
X1299213Y1716184D1*
Y2696850D1*
X59055Y2353543D2*
X249606D1*
X255906Y2359843D1*
X2755906Y2259843D2*
X2759843D1*
X2952756Y2066929D1*
X3148031Y2637795D2*
Y2667717D1*
X2755906Y3059843D1*
X3048031Y2637795D2*
Y2667717D1*
X2755906Y2959843D1*
X3425197Y964567D2*
X3758268D1*
X3425197Y807087D2*
X3758268D1*
X3425197Y649606D2*
X3758268D1*
D32*
X3444882Y1909449D3*
Y1633858D3*
X2854331Y1062992D3*
Y1338583D3*
X649606Y649606D3*
X708661Y688976D3*
X3700787Y1948819D3*
Y1673228D3*
X354331Y787402D3*
X511811Y885827D3*
X275591Y649606D3*
X236220Y1082677D3*
X40984Y3164993D2*
D14*
X2111937D1*
X2829046D2*
X3620433D1*
X40984Y3140125D2*
X2087034D1*
X2853899D2*
X3620433D1*
X40984Y3115256D2*
X230491D1*
X281291D2*
X330491D1*
X381291D2*
X2062181D1*
X2160442D2*
X2630491D1*
X2878753D2*
X3620433D1*
X40984Y3090387D2*
X201829D1*
X410003D2*
X2037327D1*
X2135589D2*
X2601829D1*
X2903606D2*
X3620433D1*
X40984Y3065518D2*
X193723D1*
X418109D2*
X2012425D1*
X2110735D2*
X2593723D1*
X2818109D2*
X2830220D1*
X2928509D2*
X3620433D1*
X40984Y3040650D2*
X196605D1*
X415227D2*
X1987571D1*
X2085833D2*
X2596605D1*
X2824211D2*
X2855101D1*
X2953362D2*
X3620433D1*
X40984Y3015781D2*
X212766D1*
X399066D2*
X1962718D1*
X2060979D2*
X2612766D1*
X2849114D2*
X2879954D1*
X2978215D2*
X3620433D1*
X40984Y2990912D2*
X202122D1*
X409661D2*
X740745D1*
X827776D2*
X840745D1*
X927776D2*
X940745D1*
X1027776D2*
X1937864D1*
X2036126D2*
X2602122D1*
X2873967D2*
X2904857D1*
X3003118D2*
X3620433D1*
X40984Y2966043D2*
X193773D1*
X418059D2*
X727318D1*
X1079143D2*
X1912962D1*
X2011223D2*
X2593773D1*
X2898822D2*
X2929710D1*
X3027971D2*
X3620433D1*
X40984Y2941175D2*
X196409D1*
X415374D2*
X726927D1*
X1104046D2*
X1888109D1*
X1986370D2*
X2596409D1*
X2923723D2*
X2954563D1*
X3052825D2*
X3620433D1*
X40984Y2916306D2*
X212181D1*
X399651D2*
X739231D1*
X829290D2*
X839175D1*
X929290D2*
X939175D1*
X1128899D2*
X1863255D1*
X1961517D2*
X2612181D1*
X2948577D2*
X2979466D1*
X3077727D2*
X3620433D1*
X40984Y2891437D2*
X87375D1*
X148870D2*
X202463D1*
X409367D2*
X1055491D1*
X1153753D2*
X1838353D1*
X1936614D2*
X2602463D1*
X2973430D2*
X3004319D1*
X3102581D2*
X3315696D1*
X3377190D2*
X3620433D1*
X40984Y2866568D2*
X52513D1*
X183734D2*
X193816D1*
X417962D2*
X1080345D1*
X1178606D2*
X1813499D1*
X1911761D2*
X2593822D1*
X2998333D2*
X3029173D1*
X3127434D2*
X3280833D1*
X3412054D2*
X3620433D1*
X423186Y2841699D2*
X1105247D1*
X1203509D2*
X1788646D1*
X1886907D2*
X2596262D1*
X2815570D2*
X2824925D1*
X3023186D2*
X3054026D1*
X3152337D2*
X3266917D1*
X3425970D2*
X3620433D1*
X202142Y2816831D2*
X211643D1*
X448039D2*
X1130101D1*
X1228362D2*
X1763743D1*
X1862005D2*
X2611643D1*
X2800189D2*
X2849778D1*
X3048039D2*
X3078929D1*
X3177190D2*
X3262474D1*
X3430462D2*
X3620433D1*
X472942Y2791962D2*
X1154954D1*
X1253215D2*
X1738890D1*
X1837151D2*
X2602757D1*
X2809026D2*
X2874631D1*
X3072942D2*
X3103782D1*
X3202043D2*
X3265745D1*
X3427190D2*
X3620433D1*
X40984Y2767093D2*
X49631D1*
X487982D2*
X1179857D1*
X1278118D2*
X1718430D1*
X1812298D2*
X2593870D1*
X2817913D2*
X2899534D1*
X3097795D2*
X3128635D1*
X3226946D2*
X3277951D1*
X3414934D2*
X3620433D1*
X40984Y2742224D2*
X78782D1*
X157415D2*
X196115D1*
X488226D2*
X1204710D1*
X1361663D2*
X1510276D1*
X1593646D2*
X1610243D1*
X1814446D2*
X1984299D1*
X2188421D2*
X2358323D1*
X2562444D2*
X2596115D1*
X2815715D2*
X2924387D1*
X3122650D2*
X3153538D1*
X3251799D2*
X3307151D1*
X3385783D2*
X3620433D1*
X40984Y2717356D2*
X211106D1*
X400726D2*
X417259D1*
X488226D2*
X1229563D1*
X1361663D2*
X1493138D1*
X1814446D2*
X1967161D1*
X2188421D2*
X2341135D1*
X2800726D2*
X2949241D1*
X3147503D2*
X3178391D1*
X3276360D2*
X3620433D1*
X40984Y2692487D2*
X203098D1*
X408685D2*
X417259D1*
X488226D2*
X1236741D1*
X1361663D2*
X1489671D1*
X1814446D2*
X1963694D1*
X2188421D2*
X2337718D1*
X2808685D2*
X2974143D1*
X3175091D2*
X3185580D1*
X3310491D2*
X3620433D1*
X40984Y2667618D2*
X193967D1*
X491741D2*
X1236741D1*
X1361663D2*
X1497142D1*
X1814446D2*
X1971115D1*
X2188421D2*
X2345139D1*
X2817864D2*
X2993528D1*
X3310491D2*
X3620433D1*
X40984Y2642749D2*
X195921D1*
X516643D2*
X1236741D1*
X1361663D2*
X1523606D1*
X1580315D2*
X1623606D1*
X1680315D2*
X1689479D1*
X1814446D2*
X1997630D1*
X2054339D2*
X2063534D1*
X2188421D2*
X2371654D1*
X2428362D2*
X2437522D1*
X2562444D2*
X2595921D1*
X2815862D2*
X2985765D1*
X3310491D2*
X3896018D1*
X40984Y2617881D2*
X210570D1*
X401214D2*
X443235D1*
X541497D2*
X1263743D1*
X1334710D2*
X1716478D1*
X1787444D2*
X2610570D1*
X2801214D2*
X2988987D1*
X3310491D2*
X3896018D1*
X40984Y2593012D2*
X203441D1*
X408343D2*
X468089D1*
X566350D2*
X1263743D1*
X1334710D2*
X1716478D1*
X1787444D2*
X2603441D1*
X2808343D2*
X3005686D1*
X3090374D2*
X3105686D1*
X3310491D2*
X3896018D1*
X40984Y2568143D2*
X194017D1*
X417766D2*
X492942D1*
X591203D2*
X1263743D1*
X1334710D2*
X1716478D1*
X1787444D2*
X2594017D1*
X2817766D2*
X3212571D1*
X3283490D2*
X3896018D1*
X40984Y2543274D2*
X195774D1*
X416009D2*
X517845D1*
X616106D2*
X1263743D1*
X1334710D2*
X1716478D1*
X1787444D2*
X2595774D1*
X2816009D2*
X3212571D1*
X3283490D2*
X3382444D1*
X3507318D2*
X3896018D1*
X40984Y2518406D2*
X210081D1*
X401751D2*
X542698D1*
X640081D2*
X1263743D1*
X1334710D2*
X1716478D1*
X1787444D2*
X2610081D1*
X2801751D2*
X3212571D1*
X3283490D2*
X3382444D1*
X3507318D2*
X3896018D1*
X100774Y2493537D2*
X203831D1*
X408001D2*
X567551D1*
X645696D2*
X1263743D1*
X1334710D2*
X1716478D1*
X1787444D2*
X2603831D1*
X2808001D2*
X3212571D1*
X3283490D2*
X3382444D1*
X3507318D2*
X3896018D1*
X115471Y2468668D2*
X194114D1*
X417718D2*
X574778D1*
X645696D2*
X1263743D1*
X1334710D2*
X1716478D1*
X1787444D2*
X2594114D1*
X2817718D2*
X3212571D1*
X3283490D2*
X3382444D1*
X3507318D2*
X3896018D1*
X116741Y2443799D2*
X195627D1*
X416155D2*
X574778D1*
X645696D2*
X1263743D1*
X1334710D2*
X1716478D1*
X1787444D2*
X2595627D1*
X2816155D2*
X3212571D1*
X3283490D2*
X3382444D1*
X3507318D2*
X3896018D1*
X105609Y2418930D2*
X209593D1*
X402239D2*
X574778D1*
X645696D2*
X1263743D1*
X1334710D2*
X1716478D1*
X1787444D2*
X2609593D1*
X2802239D2*
X3212571D1*
X3283490D2*
X3409398D1*
X3480364D2*
X3896018D1*
X100238Y2394062D2*
X204173D1*
X407659D2*
X574778D1*
X645696D2*
X1263743D1*
X1334710D2*
X1716478D1*
X1787444D2*
X2604173D1*
X2807659D2*
X3212571D1*
X3283490D2*
X3409398D1*
X3480364D2*
X3896018D1*
X417619Y2369193D2*
X574778D1*
X645696D2*
X1263743D1*
X1334710D2*
X1716478D1*
X1787444D2*
X2594163D1*
X2817619D2*
X3212571D1*
X3283490D2*
X3409398D1*
X3480364D2*
X3896018D1*
X416302Y2344324D2*
X574778D1*
X645696D2*
X1263743D1*
X1334710D2*
X1716478D1*
X1787444D2*
X2595482D1*
X2816302D2*
X3212571D1*
X3283490D2*
X3409398D1*
X3480364D2*
X3896018D1*
X105999Y2319455D2*
X209105D1*
X402727D2*
X574778D1*
X645696D2*
X1263743D1*
X1334710D2*
X1716478D1*
X1787444D2*
X2609105D1*
X2802727D2*
X3212571D1*
X3283490D2*
X3409398D1*
X3480364D2*
X3896018D1*
X40984Y2294587D2*
X204563D1*
X407269D2*
X574778D1*
X645696D2*
X1263743D1*
X1334710D2*
X1716478D1*
X1787444D2*
X2704563D1*
X2807269D2*
X3212571D1*
X3283490D2*
X3409398D1*
X3480364D2*
X3896018D1*
X40984Y2269718D2*
X194261D1*
X476262D2*
X574778D1*
X645696D2*
X1263743D1*
X1334710D2*
X1716478D1*
X1787444D2*
X2694261D1*
X2817522D2*
X3212571D1*
X3283490D2*
X3409398D1*
X3480364D2*
X3896018D1*
X40984Y2244849D2*
X195335D1*
X501115D2*
X574778D1*
X645696D2*
X1263743D1*
X1334710D2*
X1716478D1*
X1787444D2*
X2695335D1*
X2823967D2*
X3212571D1*
X3283490D2*
X3409398D1*
X3480364D2*
X3896018D1*
X40984Y2219980D2*
X208615D1*
X403215D2*
X427757D1*
X526018D2*
X574778D1*
X645696D2*
X1263743D1*
X1334710D2*
X1716478D1*
X1787444D2*
X2708615D1*
X2848822D2*
X3212571D1*
X3283490D2*
X3409398D1*
X3480364D2*
X3896018D1*
X99114Y2195112D2*
X304906D1*
X406878D2*
X452610D1*
X550871D2*
X574778D1*
X645696D2*
X1263743D1*
X1334710D2*
X1716478D1*
X1787444D2*
X2775462D1*
X2873723D2*
X3212571D1*
X3283490D2*
X3409398D1*
X3480364D2*
X3896018D1*
X115031Y2170243D2*
X294358D1*
X417474D2*
X477463D1*
X645696D2*
X1263743D1*
X1334710D2*
X1716478D1*
X1787444D2*
X2800315D1*
X2898577D2*
X3212571D1*
X3283490D2*
X3409398D1*
X3480364D2*
X3896018D1*
X116986Y2145374D2*
X295238D1*
X416594D2*
X502366D1*
X645696D2*
X1263743D1*
X1334710D2*
X1716478D1*
X1787444D2*
X2825169D1*
X2923430D2*
X3212571D1*
X3283490D2*
X3409398D1*
X3480364D2*
X3896018D1*
X106780Y2120505D2*
X308177D1*
X403655D2*
X525559D1*
X645696D2*
X1263743D1*
X1334710D2*
X1716478D1*
X1787444D2*
X2850022D1*
X2971623D2*
X3212571D1*
X3283490D2*
X3409398D1*
X3480364D2*
X3833909D1*
X3871623D2*
X3896018D1*
X98528Y2095636D2*
X205295D1*
X406487D2*
X525559D1*
X645696D2*
X1263743D1*
X1334710D2*
X1716478D1*
X1787444D2*
X2605295D1*
X2806487D2*
X2874925D1*
X3003362D2*
X3212571D1*
X3283490D2*
X3409398D1*
X3480364D2*
X3802171D1*
X114837Y2070768D2*
X194455D1*
X417375D2*
X525559D1*
X645696D2*
X1263743D1*
X1334710D2*
X1716478D1*
X1787444D2*
X2594455D1*
X2817375D2*
X2894358D1*
X3011126D2*
X3212571D1*
X3283490D2*
X3409398D1*
X3480364D2*
X3794358D1*
X117034Y2045899D2*
X195091D1*
X416741D2*
X525559D1*
X645696D2*
X1263743D1*
X1334710D2*
X1716478D1*
X1787444D2*
X2595091D1*
X2816741D2*
X2898314D1*
X3007171D2*
X3212571D1*
X3283490D2*
X3409398D1*
X3480364D2*
X3798314D1*
X107171Y2021030D2*
X207689D1*
X404094D2*
X525559D1*
X645696D2*
X1263743D1*
X1334710D2*
X1716478D1*
X1787444D2*
X2607689D1*
X2804094D2*
X2918138D1*
X2987395D2*
X3212571D1*
X3283490D2*
X3409398D1*
X3480364D2*
X3818138D1*
X97894Y1996161D2*
X205686D1*
X406097D2*
X525559D1*
X645696D2*
X1263743D1*
X1334710D2*
X1716478D1*
X1787444D2*
X2605686D1*
X2806097D2*
X2902463D1*
X3003021D2*
X3212571D1*
X3283490D2*
X3409398D1*
X3480364D2*
X3802463D1*
X114690Y1971293D2*
X194554D1*
X417278D2*
X525559D1*
X645696D2*
X1263743D1*
X1334710D2*
X1716478D1*
X1787444D2*
X2594554D1*
X2817278D2*
X2894407D1*
X3011126D2*
X3212571D1*
X3297503D2*
X3409398D1*
X3480364D2*
X3657591D1*
X3743987D2*
X3794407D1*
X130266Y1946424D2*
X194993D1*
X416839D2*
X525559D1*
X645696D2*
X1263743D1*
X1334710D2*
X1716478D1*
X1787444D2*
X2594993D1*
X2816839D2*
X2898118D1*
X3007366D2*
X3224143D1*
X3322406D2*
X3409398D1*
X3480364D2*
X3651878D1*
X3749699D2*
X3798118D1*
X155119Y1921555D2*
X207249D1*
X404534D2*
X525559D1*
X645696D2*
X1263743D1*
X1334710D2*
X1716478D1*
X1787444D2*
X2607249D1*
X2804534D2*
X2917406D1*
X2988127D2*
X3248997D1*
X3347259D2*
X3397483D1*
X3492278D2*
X3660618D1*
X3740959D2*
X3817406D1*
X180022Y1896686D2*
X206126D1*
X405706D2*
X525559D1*
X645696D2*
X1263743D1*
X1334710D2*
X1716478D1*
X1787444D2*
X2606126D1*
X2805706D2*
X2902806D1*
X3002727D2*
X3273850D1*
X3372112D2*
X3397678D1*
X3492083D2*
X3665306D1*
X3736273D2*
X3802806D1*
X417131Y1871818D2*
X525559D1*
X645696D2*
X1263743D1*
X1334710D2*
X1716478D1*
X1787444D2*
X2594651D1*
X2817131D2*
X2894455D1*
X3011077D2*
X3298753D1*
X3397014D2*
X3415062D1*
X3474699D2*
X3665306D1*
X3736273D2*
X3794455D1*
X416937Y1846949D2*
X525559D1*
X645696D2*
X1263743D1*
X1334710D2*
X1716478D1*
X1787444D2*
X2594846D1*
X2816937D2*
X2897923D1*
X3007610D2*
X3323606D1*
X3421867D2*
X3665306D1*
X3736273D2*
X3797923D1*
X404974Y1822080D2*
X525559D1*
X645696D2*
X1263743D1*
X1334710D2*
X1716478D1*
X1787444D2*
X2606858D1*
X2804974D2*
X2916673D1*
X2988811D2*
X3348459D1*
X3446722D2*
X3665306D1*
X3736273D2*
X3816673D1*
X40984Y1797211D2*
X82786D1*
X405315D2*
X525559D1*
X645696D2*
X1263743D1*
X1334710D2*
X1716478D1*
X1787444D2*
X2606517D1*
X2805315D2*
X2903147D1*
X3002386D2*
X3373362D1*
X3471623D2*
X3665306D1*
X3736273D2*
X3803147D1*
X40984Y1772343D2*
X107639D1*
X417034D2*
X525559D1*
X645696D2*
X1263743D1*
X1334710D2*
X1716478D1*
X1787444D2*
X2594749D1*
X2817034D2*
X2894505D1*
X3011028D2*
X3398215D1*
X3496478D2*
X3665306D1*
X3736273D2*
X3794505D1*
X40984Y1747474D2*
X121995D1*
X417083D2*
X525559D1*
X645696D2*
X1263743D1*
X1334710D2*
X1716478D1*
X1787444D2*
X2594749D1*
X2817083D2*
X2897727D1*
X3007806D2*
X3423070D1*
X3521331D2*
X3665306D1*
X3736273D2*
X3797727D1*
X40984Y1722605D2*
X121995D1*
X405413D2*
X525559D1*
X645696D2*
X1263743D1*
X1341937D2*
X1716478D1*
X1787444D2*
X2606419D1*
X2805413D2*
X2915990D1*
X2989495D2*
X3447923D1*
X3546234D2*
X3665306D1*
X3736273D2*
X3815990D1*
X304875Y1697736D2*
X525559D1*
X645696D2*
X1269358D1*
X1366790D2*
X1716478D1*
X1787444D2*
X2606955D1*
X2804875D2*
X2903490D1*
X3002043D2*
X3472825D1*
X3571087D2*
X3658762D1*
X3742815D2*
X3803490D1*
X316937Y1672867D2*
X525559D1*
X645696D2*
X1293382D1*
X1391643D2*
X1716478D1*
X1787444D2*
X2594895D1*
X2816937D2*
X2894554D1*
X3010979D2*
X3417112D1*
X3472698D2*
X3497678D1*
X3595941D2*
X3651780D1*
X3749798D2*
X3794554D1*
X317181Y1647999D2*
X525559D1*
X645696D2*
X1318283D1*
X1416546D2*
X1716478D1*
X1787444D2*
X2594651D1*
X2817181D2*
X2897531D1*
X3008001D2*
X3398070D1*
X3491693D2*
X3522531D1*
X3620843D2*
X3659251D1*
X3742327D2*
X3797531D1*
X305803Y1623130D2*
X525559D1*
X645696D2*
X1343138D1*
X1441399D2*
X1716478D1*
X1787444D2*
X2605979D1*
X2805803D2*
X2915354D1*
X2990178D2*
X3397142D1*
X3492619D2*
X3547434D1*
X3645696D2*
X3815354D1*
X404437Y1598261D2*
X525559D1*
X645696D2*
X1367991D1*
X1466253D2*
X1716478D1*
X1787444D2*
X2707395D1*
X2804437D2*
X2903831D1*
X3001702D2*
X3409398D1*
X3480364D2*
X3572287D1*
X3670550D2*
X3803831D1*
X40984Y1573392D2*
X121995D1*
X416790D2*
X525559D1*
X645696D2*
X1392894D1*
X1491155D2*
X1716623D1*
X1804094D2*
X2694993D1*
X2816790D2*
X2894602D1*
X3010882D2*
X3409398D1*
X3480364D2*
X3597142D1*
X3695403D2*
X3794602D1*
X40984Y1548524D2*
X121995D1*
X417278D2*
X525559D1*
X645696D2*
X1417747D1*
X1516009D2*
X1730686D1*
X1828948D2*
X2694505D1*
X2817278D2*
X2897337D1*
X3008147D2*
X3408860D1*
X3480364D2*
X3622043D1*
X3720306D2*
X3797337D1*
X40984Y1523655D2*
X121995D1*
X406194D2*
X525559D1*
X645696D2*
X1442601D1*
X1540862D2*
X1755539D1*
X1853802D2*
X2705589D1*
X2806194D2*
X2914671D1*
X2990814D2*
X3383958D1*
X3478167D2*
X3646898D1*
X3745159D2*
X3814671D1*
X40984Y1498786D2*
X121995D1*
X403997D2*
X525559D1*
X645696D2*
X1467454D1*
X1565765D2*
X1780442D1*
X1878703D2*
X2607835D1*
X2803997D2*
X2904173D1*
X3001311D2*
X3359105D1*
X3457366D2*
X3671751D1*
X3770013D2*
X3896018D1*
X40984Y1473917D2*
X121995D1*
X416693D2*
X525559D1*
X645696D2*
X1230638D1*
X1402386D2*
X1492357D1*
X1590618D2*
X1805295D1*
X1903558D2*
X2595139D1*
X2816693D2*
X2894651D1*
X3010833D2*
X3334251D1*
X3432513D2*
X3696654D1*
X3794915D2*
X3896018D1*
X40984Y1449049D2*
X121995D1*
X417375D2*
X525559D1*
X645696D2*
X1198850D1*
X1434123D2*
X1517210D1*
X1615471D2*
X1830150D1*
X1965911D2*
X2594407D1*
X2817375D2*
X2897190D1*
X3008343D2*
X3309349D1*
X3407610D2*
X3721507D1*
X3819769D2*
X3896018D1*
X40984Y1424180D2*
X121995D1*
X406585D2*
X525559D1*
X645696D2*
X1178587D1*
X1454387D2*
X1542063D1*
X1640374D2*
X1855051D1*
X1984807D2*
X2605198D1*
X2806585D2*
X2914035D1*
X2991448D2*
X3284495D1*
X3382757D2*
X3746360D1*
X3844622D2*
X3896018D1*
X40984Y1399311D2*
X121995D1*
X403558D2*
X525559D1*
X645696D2*
X1165110D1*
X1467864D2*
X1566966D1*
X1665227D2*
X1864378D1*
X1989202D2*
X2608274D1*
X2803558D2*
X2904563D1*
X3000970D2*
X3259642D1*
X3357903D2*
X3771262D1*
X93402Y1374442D2*
X121995D1*
X416546D2*
X525559D1*
X645696D2*
X1156614D1*
X1476360D2*
X1591819D1*
X1690081D2*
X1870823D1*
X1982757D2*
X2595238D1*
X2886419D2*
X2894718D1*
X3010783D2*
X3234739D1*
X3333001D2*
X3794749D1*
X113421Y1349573D2*
X121984D1*
X417474D2*
X525559D1*
X645696D2*
X1152366D1*
X1480609D2*
X1616673D1*
X1714934D2*
X1894407D1*
X1959123D2*
X2594358D1*
X3008538D2*
X3209886D1*
X3308147D2*
X3796995D1*
X406975Y1324705D2*
X525559D1*
X645696D2*
X1151975D1*
X1480999D2*
X1641575D1*
X1739837D2*
X1905638D1*
X1947894D2*
X2604807D1*
X2901214D2*
X2913450D1*
X2992083D2*
X3185031D1*
X3283294D2*
X3813450D1*
X109759Y1299836D2*
X121984D1*
X403070D2*
X525559D1*
X645696D2*
X1155442D1*
X1477531D2*
X1666429D1*
X1764690D2*
X1873655D1*
X1979875D2*
X2608714D1*
X2803070D2*
X2818870D1*
X2889787D2*
X3160130D1*
X3258441D2*
X3817259D1*
X3888226D2*
X3896010D1*
X92619Y1274967D2*
X121995D1*
X416399D2*
X525559D1*
X645696D2*
X1163059D1*
X1469963D2*
X1691282D1*
X1789543D2*
X1864769D1*
X1988811D2*
X2595383D1*
X2889787D2*
X3135276D1*
X3233538D2*
X3817259D1*
X3888226D2*
X3896010D1*
X113177Y1250098D2*
X122020D1*
X417571D2*
X525559D1*
X645696D2*
X1175413D1*
X1457562D2*
X1716185D1*
X1814446D2*
X1866966D1*
X1986566D2*
X2024143D1*
X2149066D2*
X2242650D1*
X2363615D2*
X2594261D1*
X2889787D2*
X3110423D1*
X3208685D2*
X3817259D1*
X3888226D2*
X3896010D1*
X407366Y1225230D2*
X525559D1*
X645696D2*
X1194114D1*
X1438909D2*
X1741038D1*
X2363615D2*
X2604466D1*
X2807366D2*
X2818823D1*
X2889787D2*
X3085521D1*
X3183831D2*
X3817259D1*
X3888226D2*
X3896010D1*
X110101Y1200361D2*
X122012D1*
X265959D2*
X345871D1*
X365955D2*
X525559D1*
X645696D2*
X1222825D1*
X1410198D2*
X1765891D1*
X2363615D2*
X2645871D1*
X2665955D2*
X2745871D1*
X2765955D2*
X2818870D1*
X2889787D2*
X3060667D1*
X3158929D2*
X3817259D1*
X3888226D2*
X3896010D1*
X80119Y1175492D2*
X121995D1*
X271282D2*
X525559D1*
X645696D2*
X1282102D1*
X1350871D2*
X1790941D1*
X2377581D2*
X2818870D1*
X2889787D2*
X3035814D1*
X3134075D2*
X3817259D1*
X3888226D2*
X3896010D1*
X40984Y1150623D2*
X123802D1*
X296135D2*
X525559D1*
X645696D2*
X1987327D1*
X2149066D2*
X2242650D1*
X2402434D2*
X2818870D1*
X2889787D2*
X3010959D1*
X3109222D2*
X3817259D1*
X3888226D2*
X3896010D1*
X40984Y1125755D2*
X144017D1*
X321038D2*
X525559D1*
X645696D2*
X1962425D1*
X2060735D2*
X2329026D1*
X2427337D2*
X2818870D1*
X2889787D2*
X2986058D1*
X3084319D2*
X3817259D1*
X3888226D2*
X3896010D1*
X40984Y1100886D2*
X168870D1*
X345891D2*
X525559D1*
X645696D2*
X1937571D1*
X2035833D2*
X2353929D1*
X2452190D2*
X2818870D1*
X2889787D2*
X2961203D1*
X3059466D2*
X3817259D1*
X3888226D2*
X3896010D1*
X90959Y1076017D2*
X187718D1*
X370745D2*
X525559D1*
X645696D2*
X1469699D1*
X2010979D2*
X2378782D1*
X2762591D2*
X2807199D1*
X2901458D2*
X2936350D1*
X3034612D2*
X3817259D1*
X3888226D2*
X3896010D1*
X395647Y1051148D2*
X525559D1*
X645696D2*
X1435081D1*
X1986126D2*
X2403635D1*
X2797210D2*
X2806841D1*
X2901799D2*
X2911448D1*
X3009710D2*
X3817259D1*
X3888226D2*
X3896010D1*
X420501Y1026280D2*
X525559D1*
X645696D2*
X1410227D1*
X1961223D2*
X2428538D1*
X2984857D2*
X3817259D1*
X3888226D2*
X3896010D1*
X445354Y1001411D2*
X525559D1*
X645696D2*
X1385325D1*
X1483635D2*
X2748655D1*
X2846917D2*
X2861741D1*
X2960003D2*
X2992795D1*
X3089886D2*
X3376634D1*
X3473723D2*
X3699730D1*
X90130Y976542D2*
X371946D1*
X470207D2*
X525559D1*
X645696D2*
X1360471D1*
X1458734D2*
X2773558D1*
X2935101D2*
X2981077D1*
X3101605D2*
X3364963D1*
X239202Y951673D2*
X396849D1*
X495110D2*
X525559D1*
X645696D2*
X1335618D1*
X1433879D2*
X1845042D1*
X2013226D2*
X2616673D1*
X2910247D2*
X2981273D1*
X3101360D2*
X3365159D1*
X264055Y926804D2*
X421702D1*
X645696D2*
X1310765D1*
X1409026D2*
X1845042D1*
X2013226D2*
X2616673D1*
X2816399D2*
X2993528D1*
X3089154D2*
X3377415D1*
X3472991D2*
X3699730D1*
X288909Y901936D2*
X446555D1*
X645696D2*
X1285862D1*
X1384123D2*
X1845042D1*
X2816399D2*
X3822776D1*
X84123Y877067D2*
X215550D1*
X313811D2*
X463646D1*
X645696D2*
X1261009D1*
X1359270D2*
X1845042D1*
X2816399D2*
X3822776D1*
X40984Y852198D2*
X240403D1*
X338665D2*
X477219D1*
X645696D2*
X1236155D1*
X1334417D2*
X1845042D1*
X2013226D2*
X2616673D1*
X2816399D2*
X3000853D1*
X3081829D2*
X3384690D1*
X3465667D2*
X3699730D1*
X40984Y827329D2*
X265257D1*
X380657D2*
X525559D1*
X645696D2*
X1211253D1*
X1309514D2*
X1845042D1*
X2013226D2*
X2616673D1*
X2816399D2*
X2983470D1*
X3099211D2*
X3367307D1*
X40984Y802461D2*
X290159D1*
X400823D2*
X525559D1*
X645696D2*
X1186399D1*
X1284661D2*
X2616673D1*
X2816399D2*
X2980051D1*
X3102630D2*
X3363890D1*
X117571Y777592D2*
X306370D1*
X402287D2*
X525559D1*
X645696D2*
X1161546D1*
X1259807D2*
X2987766D1*
X3094915D2*
X3371654D1*
X221575Y752723D2*
X320871D1*
X387786D2*
X525559D1*
X645696D2*
X1136643D1*
X1234906D2*
X3015990D1*
X3066693D2*
X3399827D1*
X3450530D2*
X3699730D1*
X246478Y727854D2*
X525559D1*
X645696D2*
X680686D1*
X736663D2*
X1111790D1*
X1210051D2*
X3822776D1*
X271331Y702986D2*
X525559D1*
X645696D2*
X661839D1*
X755510D2*
X1086937D1*
X1185198D2*
X3397630D1*
X3452776D2*
X3699730D1*
X154241Y678117D2*
X197923D1*
X314837D2*
X525559D1*
X756390D2*
X1062034D1*
X1160345D2*
X3371067D1*
X40984Y653248D2*
X82054D1*
X177727D2*
X222825D1*
X324455D2*
X525559D1*
X744134D2*
X1037181D1*
X1135442D2*
X3363841D1*
X40984Y628379D2*
X105491D1*
X201165D2*
X231711D1*
X319475D2*
X525559D1*
X744134D2*
X1012327D1*
X1110589D2*
X2616673D1*
X2816399D2*
X3367698D1*
X40984Y603510D2*
X128978D1*
X224602D2*
X267014D1*
X284130D2*
X525559D1*
X744134D2*
X902122D1*
X1085735D2*
X1256419D1*
X1450677D2*
X1709202D1*
X1903411D2*
X2616673D1*
X2816399D2*
X3329954D1*
X40984Y578642D2*
X152415D1*
X248089D2*
X525559D1*
X744134D2*
X902122D1*
X1060833D2*
X1256419D1*
X1474699D2*
X1709202D1*
X1927434D2*
X2616673D1*
X2816399D2*
X3305101D1*
X3836419D2*
X3896018D1*
X40984Y553773D2*
X175902D1*
X271526D2*
X525559D1*
X744134D2*
X902122D1*
X1035979D2*
X1256419D1*
X1481291D2*
X1709202D1*
X1934075D2*
X2616673D1*
X2816399D2*
X3280247D1*
X3378509D2*
X3620433D1*
X40984Y528904D2*
X199339D1*
X295013D2*
X525559D1*
X744134D2*
X902122D1*
X1027043D2*
X1256419D1*
X1477043D2*
X1709202D1*
X1929827D2*
X2616673D1*
X2816399D2*
X3255345D1*
X3353606D2*
X3620433D1*
X40984Y504035D2*
X222776D1*
X318450D2*
X525559D1*
X744134D2*
X902122D1*
X1027043D2*
X1256419D1*
X1458441D2*
X1709202D1*
X1911175D2*
X2616673D1*
X2816399D2*
X3230491D1*
X3328753D2*
X3620433D1*
X40984Y479167D2*
X67454D1*
X168791D2*
X246262D1*
X341887D2*
X525559D1*
X744134D2*
X2595383D1*
X2818010D2*
X3205638D1*
X3397112D2*
X3620433D1*
X191106Y454298D2*
X269699D1*
X365374D2*
X525559D1*
X744134D2*
X2570530D1*
X2668791D2*
X2744602D1*
X2842864D2*
X3180735D1*
X3419475D2*
X3620433D1*
X200530Y429429D2*
X293138D1*
X388811D2*
X525559D1*
X744134D2*
X2545627D1*
X2643938D2*
X2769455D1*
X2867718D2*
X3155882D1*
X3254143D2*
X3264024D1*
X3428899D2*
X3620433D1*
X201654Y404560D2*
X316623D1*
X412249D2*
X525559D1*
X744134D2*
X2520774D1*
X2619035D2*
X2794358D1*
X2892619D2*
X3131028D1*
X3229290D2*
X3262913D1*
X3430022D2*
X3620433D1*
X194866Y379692D2*
X340062D1*
X435735D2*
X525559D1*
X744134D2*
X2495921D1*
X2594182D2*
X2819211D1*
X2917474D2*
X3106126D1*
X3204437D2*
X3269699D1*
X3423186D2*
X3620433D1*
X40984Y354823D2*
X58909D1*
X177337D2*
X363547D1*
X459173D2*
X525559D1*
X744134D2*
X2471067D1*
X2569329D2*
X2844066D1*
X2942327D2*
X3081273D1*
X3179534D2*
X3287230D1*
X3405657D2*
X3620433D1*
X40984Y329954D2*
X386986D1*
X753411D2*
X2446165D1*
X2544427D2*
X2868967D1*
X2967230D2*
X3056419D1*
X3154681D2*
X3620433D1*
X40984Y305085D2*
X410423D1*
X753411D2*
X2421311D1*
X2519573D2*
X2893822D1*
X2992083D2*
X3031566D1*
X3129827D2*
X3620433D1*
X40984Y280217D2*
X433909D1*
X753411D2*
X2396458D1*
X2494719D2*
X2918675D1*
X3104925D2*
X3620433D1*
X40984Y255348D2*
X341087D1*
X753411D2*
X787913D1*
X928606D2*
X2371555D1*
X2469818D2*
X2943528D1*
X3080071D2*
X3620433D1*
X40984Y230479D2*
X341087D1*
X547307D2*
X787913D1*
X928606D2*
X2346702D1*
X2444963D2*
X2946409D1*
X3077239D2*
X3620433D1*
X40984Y205610D2*
X341087D1*
X547307D2*
X787913D1*
X928606D2*
X2321849D1*
X2420110D2*
X2946409D1*
X3077239D2*
X3620433D1*
X40984Y180741D2*
X341087D1*
X547307D2*
X787913D1*
X928606D2*
X2296946D1*
X2395207D2*
X2946409D1*
X3077239D2*
X3620433D1*
X40984Y155873D2*
X341087D1*
X547307D2*
X787913D1*
X928606D2*
X2272093D1*
X2370354D2*
X3620433D1*
X40984Y131004D2*
X341087D1*
X547307D2*
X787913D1*
X928606D2*
X2247239D1*
X2345501D2*
X3620433D1*
X40984Y106135D2*
X341087D1*
X2320647D2*
X3620433D1*
X40984Y81266D2*
X481175D1*
X2295745D2*
X3620433D1*
X40984Y56398D2*
X504710D1*
X2270891D2*
X3620433D1*
X2815677Y1255138D2*
X2814206Y1245846D1*
X2811298Y1236898D1*
X2807028Y1228516D1*
X2801497Y1220904D1*
X2794844Y1214251D1*
X2787232Y1208720D1*
X2778850Y1204450D1*
X2769902Y1201542D1*
X2760610Y1200071D1*
X2751201D1*
X2741909Y1201542D1*
X2732961Y1204450D1*
X2724579Y1208720D1*
X2716967Y1214251D1*
X2710314Y1220904D1*
X2705938Y1226787D1*
X2701497Y1220904D1*
X2694844Y1214251D1*
X2687232Y1208720D1*
X2678850Y1204450D1*
X2669902Y1201542D1*
X2660610Y1200071D1*
X2651201D1*
X2641909Y1201542D1*
X2632961Y1204450D1*
X2624579Y1208720D1*
X2616967Y1214251D1*
X2610314Y1220904D1*
X2604783Y1228516D1*
X2600513Y1236898D1*
X2597605Y1245846D1*
X2596134Y1255138D1*
Y1264547D1*
X2597605Y1273839D1*
X2600513Y1282787D1*
X2604783Y1291169D1*
X2610314Y1298781D1*
X2616967Y1305434D1*
X2622850Y1309810D1*
X2616967Y1314251D1*
X2610314Y1320904D1*
X2604783Y1328516D1*
X2600513Y1336898D1*
X2597605Y1345846D1*
X2596134Y1355138D1*
Y1364547D1*
X2597605Y1373839D1*
X2600513Y1382787D1*
X2604783Y1391169D1*
X2610314Y1398781D1*
X2616967Y1405434D1*
X2622850Y1409810D1*
X2616967Y1414251D1*
X2610314Y1420904D1*
X2604783Y1428516D1*
X2600513Y1436898D1*
X2597605Y1445846D1*
X2596134Y1455138D1*
Y1464547D1*
X2597605Y1473839D1*
X2600513Y1482787D1*
X2604783Y1491169D1*
X2610314Y1498781D1*
X2616967Y1505434D1*
X2624579Y1510965D1*
X2632961Y1515235D1*
X2641909Y1518143D1*
X2651201Y1519614D1*
X2660610D1*
X2669902Y1518143D1*
X2678850Y1515235D1*
X2687232Y1510965D1*
X2694844Y1505434D1*
X2701497Y1498781D1*
X2705873Y1492898D1*
X2710314Y1498781D1*
X2716967Y1505434D1*
X2722850Y1509810D1*
X2716967Y1514251D1*
X2710314Y1520904D1*
X2704783Y1528516D1*
X2700513Y1536898D1*
X2697605Y1545846D1*
X2696134Y1555138D1*
Y1564547D1*
X2697605Y1573839D1*
X2700513Y1582787D1*
X2704783Y1591169D1*
X2710314Y1598781D1*
X2716967Y1605434D1*
X2722850Y1609810D1*
X2716967Y1614251D1*
X2710314Y1620904D1*
X2705938Y1626787D1*
X2701497Y1620904D1*
X2694844Y1614251D1*
X2687232Y1608720D1*
X2678850Y1604450D1*
X2669902Y1601542D1*
X2660610Y1600071D1*
X2651201D1*
X2641909Y1601542D1*
X2632961Y1604450D1*
X2624579Y1608720D1*
X2616967Y1614251D1*
X2610314Y1620904D1*
X2604783Y1628516D1*
X2600513Y1636898D1*
X2597605Y1645846D1*
X2596134Y1655138D1*
Y1664547D1*
X2597605Y1673839D1*
X2600513Y1682787D1*
X2604783Y1691169D1*
X2610314Y1698781D1*
X2616967Y1705434D1*
X2622850Y1709810D1*
X2616967Y1714251D1*
X2610314Y1720904D1*
X2604783Y1728516D1*
X2600513Y1736898D1*
X2597605Y1745846D1*
X2596134Y1755138D1*
Y1764547D1*
X2597605Y1773839D1*
X2600513Y1782787D1*
X2604783Y1791169D1*
X2610314Y1798781D1*
X2616967Y1805434D1*
X2622850Y1809810D1*
X2616967Y1814251D1*
X2610314Y1820904D1*
X2604783Y1828516D1*
X2600513Y1836898D1*
X2597605Y1845846D1*
X2596134Y1855138D1*
Y1864547D1*
X2597605Y1873839D1*
X2600513Y1882787D1*
X2604783Y1891169D1*
X2610314Y1898781D1*
X2616967Y1905434D1*
X2622850Y1909810D1*
X2616967Y1914251D1*
X2610314Y1920904D1*
X2604783Y1928516D1*
X2600513Y1936898D1*
X2597605Y1945846D1*
X2596134Y1955138D1*
Y1964547D1*
X2597605Y1973839D1*
X2600513Y1982787D1*
X2604783Y1991169D1*
X2610314Y1998781D1*
X2616967Y2005434D1*
X2622850Y2009810D1*
X2616967Y2014251D1*
X2610314Y2020904D1*
X2604783Y2028516D1*
X2600513Y2036898D1*
X2597605Y2045846D1*
X2596134Y2055138D1*
Y2064547D1*
X2597605Y2073839D1*
X2600513Y2082787D1*
X2604783Y2091169D1*
X2610314Y2098781D1*
X2616967Y2105434D1*
X2624579Y2110965D1*
X2632961Y2115235D1*
X2641909Y2118143D1*
X2651201Y2119614D1*
X2660610D1*
X2669902Y2118143D1*
X2678850Y2115235D1*
X2687232Y2110965D1*
X2694844Y2105434D1*
X2701497Y2098781D1*
X2705873Y2092898D1*
X2710314Y2098781D1*
X2716967Y2105434D1*
X2724579Y2110965D1*
X2732961Y2115235D1*
X2741909Y2118143D1*
X2751201Y2119614D1*
X2760610D1*
X2769902Y2118143D1*
X2778850Y2115235D1*
X2787232Y2110965D1*
X2794844Y2105434D1*
X2801497Y2098781D1*
X2807028Y2091169D1*
X2811298Y2082787D1*
X2814206Y2073839D1*
X2815677Y2064547D1*
Y2055138D1*
X2814206Y2045846D1*
X2811298Y2036898D1*
X2807028Y2028516D1*
X2801497Y2020904D1*
X2794844Y2014251D1*
X2788961Y2009875D1*
X2794844Y2005434D1*
X2801497Y1998781D1*
X2807028Y1991169D1*
X2811298Y1982787D1*
X2814206Y1973839D1*
X2815677Y1964547D1*
Y1955138D1*
X2814206Y1945846D1*
X2811298Y1936898D1*
X2807028Y1928516D1*
X2801497Y1920904D1*
X2794844Y1914251D1*
X2788961Y1909875D1*
X2794844Y1905434D1*
X2801497Y1898781D1*
X2807028Y1891169D1*
X2811298Y1882787D1*
X2814206Y1873839D1*
X2815677Y1864547D1*
Y1855138D1*
X2814206Y1845846D1*
X2811298Y1836898D1*
X2807028Y1828516D1*
X2801497Y1820904D1*
X2794844Y1814251D1*
X2788961Y1809875D1*
X2794844Y1805434D1*
X2801497Y1798781D1*
X2807028Y1791169D1*
X2811298Y1782787D1*
X2814206Y1773839D1*
X2815677Y1764547D1*
Y1755138D1*
X2814206Y1745846D1*
X2811298Y1736898D1*
X2807028Y1728516D1*
X2801497Y1720904D1*
X2794844Y1714251D1*
X2788961Y1709875D1*
X2794844Y1705434D1*
X2801497Y1698781D1*
X2807028Y1691169D1*
X2811298Y1682787D1*
X2814206Y1673839D1*
X2815677Y1664547D1*
Y1655138D1*
X2814206Y1645846D1*
X2811298Y1636898D1*
X2807028Y1628516D1*
X2801497Y1620904D1*
X2794844Y1614251D1*
X2788961Y1609875D1*
X2794844Y1605434D1*
X2801497Y1598781D1*
X2807028Y1591169D1*
X2811298Y1582787D1*
X2814206Y1573839D1*
X2815677Y1564547D1*
Y1555138D1*
X2814206Y1545846D1*
X2811298Y1536898D1*
X2807028Y1528516D1*
X2801497Y1520904D1*
X2794844Y1514251D1*
X2788961Y1509875D1*
X2794844Y1505434D1*
X2801497Y1498781D1*
X2807028Y1491169D1*
X2811298Y1482787D1*
X2814206Y1473839D1*
X2815677Y1464547D1*
Y1455138D1*
X2814206Y1445846D1*
X2811298Y1436898D1*
X2807028Y1428516D1*
X2801497Y1420904D1*
X2794844Y1414251D1*
X2788961Y1409875D1*
X2794844Y1405434D1*
X2801497Y1398781D1*
X2807028Y1391169D1*
X2811298Y1382787D1*
X2814206Y1373839D1*
X2815682Y1364419D1*
X2821455Y1371458D1*
X2827004Y1376196D1*
X2833223Y1380008D1*
X2839963Y1382799D1*
X2847058Y1384503D1*
X2854331Y1385075D1*
X2861604Y1384503D1*
X2868698Y1382799D1*
X2875438Y1380008D1*
X2881657Y1376196D1*
X2887206Y1371458D1*
X2891944Y1365909D1*
X2895756Y1359690D1*
X2898283Y1353852D1*
X2896909Y1362534D1*
Y1371324D1*
X2898283Y1380007D1*
X2901000Y1388367D1*
X2904991Y1396199D1*
X2910159Y1403311D1*
X2916374Y1409526D1*
X2923486Y1414694D1*
X2927324Y1417016D1*
X2919828Y1421608D1*
X2913144Y1427318D1*
X2907434Y1434001D1*
X2902843Y1441497D1*
X2899478Y1449618D1*
X2897427Y1458165D1*
X2896736Y1466929D1*
X2897427Y1475693D1*
X2899478Y1484240D1*
X2902843Y1492361D1*
X2907434Y1499857D1*
X2913144Y1506541D1*
X2919828Y1512251D1*
X2927495Y1516923D1*
X2919828Y1521608D1*
X2913144Y1527318D1*
X2907434Y1534001D1*
X2902843Y1541497D1*
X2899478Y1549618D1*
X2897427Y1558165D1*
X2896736Y1566929D1*
X2897427Y1575693D1*
X2899478Y1584240D1*
X2902843Y1592361D1*
X2907434Y1599857D1*
X2913144Y1606541D1*
X2919828Y1612251D1*
X2927495Y1616923D1*
X2919828Y1621608D1*
X2913144Y1627318D1*
X2907434Y1634001D1*
X2902843Y1641497D1*
X2899478Y1649618D1*
X2897427Y1658165D1*
X2896736Y1666929D1*
X2897427Y1675693D1*
X2899478Y1684240D1*
X2902843Y1692361D1*
X2907434Y1699857D1*
X2913144Y1706541D1*
X2919828Y1712251D1*
X2927495Y1716923D1*
X2919828Y1721608D1*
X2913144Y1727318D1*
X2907434Y1734001D1*
X2902843Y1741497D1*
X2899478Y1749618D1*
X2897427Y1758165D1*
X2896736Y1766929D1*
X2897427Y1775693D1*
X2899478Y1784240D1*
X2902843Y1792361D1*
X2907434Y1799857D1*
X2913144Y1806541D1*
X2919828Y1812251D1*
X2927495Y1816923D1*
X2919828Y1821608D1*
X2913144Y1827318D1*
X2907434Y1834001D1*
X2902843Y1841497D1*
X2899478Y1849618D1*
X2897427Y1858165D1*
X2896736Y1866929D1*
X2897427Y1875693D1*
X2899478Y1884240D1*
X2902843Y1892361D1*
X2907434Y1899857D1*
X2913144Y1906541D1*
X2919828Y1912251D1*
X2927495Y1916923D1*
X2919828Y1921608D1*
X2913144Y1927318D1*
X2907434Y1934001D1*
X2902843Y1941497D1*
X2899478Y1949618D1*
X2897427Y1958165D1*
X2896736Y1966929D1*
X2897427Y1975693D1*
X2899478Y1984240D1*
X2902843Y1992361D1*
X2907434Y1999857D1*
X2913144Y2006541D1*
X2919828Y2012251D1*
X2927495Y2016923D1*
X2919828Y2021608D1*
X2913144Y2027318D1*
X2907434Y2034001D1*
X2902843Y2041497D1*
X2899478Y2049618D1*
X2897427Y2058165D1*
X2896736Y2066929D1*
X2897420Y2075642D1*
X2771194Y2201839D1*
X2760610Y2200071D1*
X2751201D1*
X2741909Y2201542D1*
X2732961Y2204450D1*
X2724579Y2208720D1*
X2716967Y2214251D1*
X2710314Y2220904D1*
X2704783Y2228516D1*
X2700513Y2236898D1*
X2697605Y2245846D1*
X2696134Y2255138D1*
Y2264547D1*
X2697605Y2273839D1*
X2700513Y2282787D1*
X2704783Y2291169D1*
X2710314Y2298781D1*
X2716967Y2305434D1*
X2722850Y2309810D1*
X2716967Y2314251D1*
X2710314Y2320904D1*
X2705938Y2326787D1*
X2701497Y2320904D1*
X2694844Y2314251D1*
X2687232Y2308720D1*
X2678850Y2304450D1*
X2669902Y2301542D1*
X2660610Y2300071D1*
X2651201D1*
X2641909Y2301542D1*
X2632961Y2304450D1*
X2624579Y2308720D1*
X2616967Y2314251D1*
X2610314Y2320904D1*
X2604783Y2328516D1*
X2600513Y2336898D1*
X2597605Y2345846D1*
X2596134Y2355138D1*
Y2364547D1*
X2597605Y2373839D1*
X2600513Y2382787D1*
X2604783Y2391169D1*
X2610314Y2398781D1*
X2616967Y2405434D1*
X2622850Y2409810D1*
X2616967Y2414251D1*
X2610314Y2420904D1*
X2604783Y2428516D1*
X2600513Y2436898D1*
X2597605Y2445846D1*
X2596134Y2455138D1*
Y2464547D1*
X2597605Y2473839D1*
X2600513Y2482787D1*
X2604783Y2491169D1*
X2610314Y2498781D1*
X2616967Y2505434D1*
X2622850Y2509810D1*
X2616967Y2514251D1*
X2610314Y2520904D1*
X2604783Y2528516D1*
X2600513Y2536898D1*
X2597605Y2545846D1*
X2596134Y2555138D1*
Y2564547D1*
X2597605Y2573839D1*
X2600513Y2582787D1*
X2604783Y2591169D1*
X2610314Y2598781D1*
X2616967Y2605434D1*
X2622850Y2609810D1*
X2616967Y2614251D1*
X2610314Y2620904D1*
X2604783Y2628516D1*
X2600513Y2636898D1*
X2597605Y2645846D1*
X2596134Y2655138D1*
X2596106Y2663866D1*
X2559962Y2663862D1*
X2559957Y2636894D1*
X2440043D1*
Y2652274D1*
X2435241Y2648344D1*
X2427219Y2643429D1*
X2418528Y2639828D1*
X2409379Y2637631D1*
X2400000Y2636894D1*
X2390621Y2637631D1*
X2381472Y2639828D1*
X2372781Y2643429D1*
X2364759Y2648344D1*
X2357604Y2654454D1*
X2351493Y2661609D1*
X2346579Y2669631D1*
X2342978Y2678323D1*
X2340781Y2687471D1*
X2340043Y2696850D1*
X2340781Y2706230D1*
X2342978Y2715378D1*
X2346579Y2724070D1*
X2351493Y2732092D1*
X2357604Y2739247D1*
X2364759Y2745357D1*
X2372781Y2750272D1*
X2381472Y2753873D1*
X2390621Y2756070D1*
X2400000Y2756807D1*
X2409379Y2756070D1*
X2418528Y2753873D1*
X2427219Y2750272D1*
X2435241Y2745357D1*
X2440033Y2741430D1*
X2440043Y2756807D1*
X2559957D1*
Y2729804D1*
X2603955Y2729839D1*
X2600513Y2736898D1*
X2597605Y2745846D1*
X2596134Y2755138D1*
Y2764547D1*
X2597605Y2773839D1*
X2600513Y2782787D1*
X2604783Y2791169D1*
X2610314Y2798781D1*
X2616967Y2805434D1*
X2622850Y2809810D1*
X2616967Y2814251D1*
X2610314Y2820904D1*
X2604783Y2828516D1*
X2600513Y2836898D1*
X2597605Y2845846D1*
X2596134Y2855138D1*
Y2864547D1*
X2597605Y2873839D1*
X2600513Y2882787D1*
X2604783Y2891169D1*
X2610314Y2898781D1*
X2616967Y2905434D1*
X2622850Y2909810D1*
X2616967Y2914251D1*
X2610314Y2920904D1*
X2604783Y2928516D1*
X2600513Y2936898D1*
X2597605Y2945846D1*
X2596134Y2955138D1*
Y2964547D1*
X2597605Y2973839D1*
X2600513Y2982787D1*
X2604783Y2991169D1*
X2610314Y2998781D1*
X2616967Y3005434D1*
X2622850Y3009810D1*
X2616967Y3014251D1*
X2610314Y3020904D1*
X2604783Y3028516D1*
X2600513Y3036898D1*
X2597605Y3045846D1*
X2596134Y3055138D1*
Y3064547D1*
X2597605Y3073839D1*
X2600513Y3082787D1*
X2604783Y3091169D1*
X2610314Y3098781D1*
X2616967Y3105434D1*
X2624579Y3110965D1*
X2632961Y3115235D1*
X2636740Y3116629D1*
X2159289Y3116618D1*
X1799525Y2756810D1*
X1811925Y2756807D1*
Y2636894D1*
X1784924D1*
X1784957Y1590063D1*
X1914678Y1460320D1*
X1922067Y1461346D1*
X1931476D1*
X1940768Y1459875D1*
X1949717Y1456967D1*
X1958098Y1452697D1*
X1965710Y1447167D1*
X1972364Y1440513D1*
X1977894Y1432902D1*
X1982164Y1424520D1*
X1985072Y1415571D1*
X1986543Y1406280D1*
Y1396870D1*
X1985072Y1387579D1*
X1982164Y1378630D1*
X1977894Y1370248D1*
X1972364Y1362636D1*
X1965710Y1355983D1*
X1958098Y1350453D1*
X1949717Y1346182D1*
X1940768Y1343274D1*
X1931476Y1341803D1*
X1922067D1*
X1912776Y1343274D1*
X1903827Y1346182D1*
X1895445Y1350453D1*
X1887833Y1355983D1*
X1881180Y1362636D1*
X1875650Y1370248D1*
X1871379Y1378630D1*
X1868471Y1387579D1*
X1867000Y1396870D1*
Y1406280D1*
X1868088Y1413642D1*
X1726885Y1554954D1*
X1722576Y1561402D1*
X1719891Y1568677D1*
X1718980Y1576378D1*
X1718993Y1576711D1*
X1718980Y2636877D1*
X1692012Y2636894D1*
Y2652274D1*
X1687210Y2648344D1*
X1679188Y2643429D1*
X1670496Y2639828D1*
X1661348Y2637631D1*
X1651969Y2636894D1*
X1642589Y2637631D1*
X1633441Y2639828D1*
X1624749Y2643429D1*
X1616727Y2648344D1*
X1609572Y2654454D1*
X1603462Y2661609D1*
X1602001Y2663795D1*
X1597560Y2657912D1*
X1590907Y2651259D1*
X1583295Y2645728D1*
X1574913Y2641458D1*
X1565965Y2638550D1*
X1556673Y2637079D1*
X1547264D1*
X1537972Y2638550D1*
X1529024Y2641458D1*
X1520642Y2645728D1*
X1513030Y2651259D1*
X1506377Y2657912D1*
X1500846Y2665524D1*
X1496576Y2673906D1*
X1493668Y2682854D1*
X1492197Y2692146D1*
Y2701555D1*
X1493668Y2710846D1*
X1496576Y2719795D1*
X1500846Y2728177D1*
X1506377Y2735789D1*
X1513030Y2742442D1*
X1520642Y2747972D1*
X1529024Y2752243D1*
X1537972Y2755151D1*
X1547264Y2756622D1*
X1556673D1*
X1565965Y2755151D1*
X1574913Y2752243D1*
X1583295Y2747972D1*
X1590907Y2742442D1*
X1597560Y2735789D1*
X1601936Y2729906D1*
X1606377Y2735789D1*
X1613030Y2742442D1*
X1620642Y2747972D1*
X1629024Y2752243D1*
X1637972Y2755151D1*
X1647264Y2756622D1*
X1656673D1*
X1665965Y2755151D1*
X1674913Y2752243D1*
X1683295Y2747972D1*
X1690907Y2742442D1*
X1692001Y2741430D1*
X1692012Y2756807D1*
X1719014D1*
X1719891Y2763606D1*
X1722576Y2770882D1*
X1726885Y2777329D1*
X1808192Y2858781D1*
X2124245Y3174690D1*
X2130693Y3178999D1*
X2137969Y3181684D1*
X2145669Y3182594D1*
X2146003Y3182581D1*
X2797864Y3182493D1*
X2805470Y3180980D1*
X2812512Y3177734D1*
X2818602Y3172933D1*
X2818828Y3172688D1*
X3273115Y2718274D1*
X3277424Y2711827D1*
X3280109Y2704551D1*
X3280933Y2699045D1*
X3288075Y2697752D1*
X3307988D1*
Y2577839D1*
X3280987D1*
X3281020Y1985304D1*
X3844052Y1422286D1*
X3852756Y1422949D1*
X3861520Y1422259D1*
X3870067Y1420207D1*
X3878188Y1416843D1*
X3885684Y1412251D1*
X3892367Y1406541D1*
X3898545Y1399156D1*
X3898524Y1534580D1*
X3892367Y1527318D1*
X3885684Y1521608D1*
X3878188Y1517016D1*
X3870067Y1513651D1*
X3861520Y1511600D1*
X3852756Y1510909D1*
X3843992Y1511600D1*
X3835445Y1513651D1*
X3827324Y1517016D1*
X3819828Y1521608D1*
X3813144Y1527318D1*
X3807434Y1534001D1*
X3802843Y1541497D1*
X3799478Y1549618D1*
X3797427Y1558165D1*
X3796736Y1566929D1*
X3797427Y1575693D1*
X3799478Y1584240D1*
X3802843Y1592361D1*
X3807434Y1599857D1*
X3813144Y1606541D1*
X3819828Y1612251D1*
X3827495Y1616923D1*
X3819828Y1621608D1*
X3813144Y1627318D1*
X3807434Y1634001D1*
X3802843Y1641497D1*
X3799478Y1649618D1*
X3797427Y1658165D1*
X3796736Y1666929D1*
X3797427Y1675693D1*
X3799478Y1684240D1*
X3802843Y1692361D1*
X3807434Y1699857D1*
X3813144Y1706541D1*
X3819828Y1712251D1*
X3827495Y1716923D1*
X3819828Y1721608D1*
X3813144Y1727318D1*
X3807434Y1734001D1*
X3802843Y1741497D1*
X3799478Y1749618D1*
X3797427Y1758165D1*
X3796736Y1766929D1*
X3797427Y1775693D1*
X3799478Y1784240D1*
X3802843Y1792361D1*
X3807434Y1799857D1*
X3813144Y1806541D1*
X3819828Y1812251D1*
X3827495Y1816923D1*
X3819828Y1821608D1*
X3813144Y1827318D1*
X3807434Y1834001D1*
X3802843Y1841497D1*
X3799478Y1849618D1*
X3797427Y1858165D1*
X3796736Y1866929D1*
X3797427Y1875693D1*
X3799478Y1884240D1*
X3802843Y1892361D1*
X3807434Y1899857D1*
X3813144Y1906541D1*
X3819828Y1912251D1*
X3827495Y1916923D1*
X3819828Y1921608D1*
X3813144Y1927318D1*
X3807434Y1934001D1*
X3802843Y1941497D1*
X3799478Y1949618D1*
X3797427Y1958165D1*
X3796736Y1966929D1*
X3797427Y1975693D1*
X3799478Y1984240D1*
X3802843Y1992361D1*
X3807434Y1999857D1*
X3813144Y2006541D1*
X3819828Y2012251D1*
X3827495Y2016923D1*
X3819828Y2021608D1*
X3813144Y2027318D1*
X3807434Y2034001D1*
X3802843Y2041497D1*
X3799478Y2049618D1*
X3797427Y2058165D1*
X3796736Y2066929D1*
X3797427Y2075693D1*
X3799478Y2084240D1*
X3802843Y2092361D1*
X3807434Y2099857D1*
X3813144Y2106541D1*
X3819828Y2112251D1*
X3827324Y2116843D1*
X3835445Y2120207D1*
X3843992Y2122259D1*
X3852756Y2122949D1*
X3861520Y2122259D1*
X3870067Y2120207D1*
X3878188Y2116843D1*
X3885684Y2112251D1*
X3892367Y2106541D1*
X3898545Y2099156D1*
X3898524Y2658366D1*
X3633478Y2658520D1*
X3629759Y2659728D1*
X3626594Y2662028D1*
X3624295Y2665192D1*
X3623087Y2668911D1*
X3622933Y2683366D1*
Y3189862D1*
X38484D1*
Y2832490D1*
X40572Y2840155D1*
X45467Y2851974D1*
X52152Y2862882D1*
X60461Y2872610D1*
X70189Y2880919D1*
X81097Y2887604D1*
X92916Y2892499D1*
X105357Y2895486D1*
X118110Y2896490D1*
X130864Y2895486D1*
X143304Y2892499D1*
X155123Y2887604D1*
X166031Y2880919D1*
X175760Y2872610D1*
X184068Y2862882D1*
X190753Y2851974D1*
X195648Y2840155D1*
X198635Y2827714D1*
X199639Y2814961D1*
X198635Y2802207D1*
X195648Y2789766D1*
X190753Y2777948D1*
X184068Y2767039D1*
X175760Y2757311D1*
X166031Y2749003D1*
X155123Y2742318D1*
X143304Y2737423D1*
X130864Y2734436D1*
X118110Y2733432D1*
X105357Y2734436D1*
X92916Y2737423D1*
X81097Y2742318D1*
X70189Y2749003D1*
X60461Y2757311D1*
X52152Y2767039D1*
X45467Y2777948D1*
X40572Y2789766D1*
X38469Y2797768D1*
X38484Y2505634D1*
X45978Y2508016D1*
X54660Y2509390D1*
X63450D1*
X72133Y2508016D1*
X80493Y2505299D1*
X88325Y2501308D1*
X95437Y2496140D1*
X101652Y2489925D1*
X106820Y2482814D1*
X110811Y2474982D1*
X113528Y2466621D1*
X114902Y2457938D1*
Y2449148D1*
X113528Y2440466D1*
X110811Y2432105D1*
X106820Y2424273D1*
X101652Y2417161D1*
X95437Y2410946D1*
X88325Y2405778D1*
X84487Y2403457D1*
X91983Y2398865D1*
X98667Y2393155D1*
X104344Y2386512D1*
X202171Y2386531D1*
X207399Y2395084D1*
X213509Y2402239D1*
X220664Y2408349D1*
X222850Y2409810D1*
X216967Y2414251D1*
X210314Y2420904D1*
X204783Y2428516D1*
X200513Y2436898D1*
X197605Y2445846D1*
X196134Y2455138D1*
Y2464547D1*
X197605Y2473839D1*
X200513Y2482787D1*
X204783Y2491169D1*
X210314Y2498781D1*
X216967Y2505434D1*
X222850Y2509810D1*
X216967Y2514251D1*
X210314Y2520904D1*
X204783Y2528516D1*
X200513Y2536898D1*
X197605Y2545846D1*
X196134Y2555138D1*
Y2564547D1*
X197605Y2573839D1*
X200513Y2582787D1*
X204783Y2591169D1*
X210314Y2598781D1*
X216967Y2605434D1*
X222850Y2609810D1*
X216967Y2614251D1*
X210314Y2620904D1*
X204783Y2628516D1*
X200513Y2636898D1*
X197605Y2645846D1*
X196134Y2655138D1*
Y2664547D1*
X197605Y2673839D1*
X200513Y2682787D1*
X204783Y2691169D1*
X210314Y2698781D1*
X216967Y2705434D1*
X222850Y2709810D1*
X216967Y2714251D1*
X210314Y2720904D1*
X204783Y2728516D1*
X200513Y2736898D1*
X197605Y2745846D1*
X196134Y2755138D1*
Y2764547D1*
X197605Y2773839D1*
X200513Y2782787D1*
X204783Y2791169D1*
X210314Y2798781D1*
X216967Y2805434D1*
X222850Y2809810D1*
X216967Y2814251D1*
X210314Y2820904D1*
X204783Y2828516D1*
X200513Y2836898D1*
X197605Y2845846D1*
X196134Y2855138D1*
Y2864547D1*
X197605Y2873839D1*
X200513Y2882787D1*
X204783Y2891169D1*
X210314Y2898781D1*
X216967Y2905434D1*
X222850Y2909810D1*
X216967Y2914251D1*
X210314Y2920904D1*
X204783Y2928516D1*
X200513Y2936898D1*
X197605Y2945846D1*
X196134Y2955138D1*
Y2964547D1*
X197605Y2973839D1*
X200513Y2982787D1*
X204783Y2991169D1*
X210314Y2998781D1*
X216967Y3005434D1*
X222850Y3009810D1*
X216967Y3014251D1*
X210314Y3020904D1*
X204783Y3028516D1*
X200513Y3036898D1*
X197605Y3045846D1*
X196134Y3055138D1*
Y3064547D1*
X197605Y3073839D1*
X200513Y3082787D1*
X204783Y3091169D1*
X210314Y3098781D1*
X216967Y3105434D1*
X224579Y3110965D1*
X232961Y3115235D1*
X241909Y3118143D1*
X251201Y3119614D1*
X260610D1*
X269902Y3118143D1*
X278850Y3115235D1*
X287232Y3110965D1*
X294844Y3105434D1*
X301497Y3098781D1*
X305873Y3092898D1*
X310314Y3098781D1*
X316967Y3105434D1*
X324579Y3110965D1*
X332961Y3115235D1*
X341909Y3118143D1*
X351201Y3119614D1*
X360610D1*
X369902Y3118143D1*
X378850Y3115235D1*
X387232Y3110965D1*
X394844Y3105434D1*
X401497Y3098781D1*
X407028Y3091169D1*
X411298Y3082787D1*
X414206Y3073839D1*
X415677Y3064547D1*
Y3055138D1*
X414206Y3045846D1*
X411298Y3036898D1*
X407028Y3028516D1*
X401497Y3020904D1*
X394844Y3014251D1*
X388961Y3009875D1*
X394844Y3005434D1*
X401497Y2998781D1*
X407028Y2991169D1*
X411298Y2982787D1*
X414206Y2973839D1*
X415677Y2964547D1*
Y2955138D1*
X414206Y2945846D1*
X411298Y2936898D1*
X407028Y2928516D1*
X401497Y2920904D1*
X394844Y2914251D1*
X388961Y2909875D1*
X394844Y2905434D1*
X401497Y2898781D1*
X407028Y2891169D1*
X411298Y2882787D1*
X414206Y2873839D1*
X415677Y2864547D1*
Y2855138D1*
X414589Y2847776D1*
X477840Y2784416D1*
X482148Y2777969D1*
X484832Y2770693D1*
X485744Y2762992D1*
X485731Y2762659D1*
X485744Y2671147D1*
X635320Y2521424D1*
X639629Y2514976D1*
X642314Y2507701D1*
X643224Y2500000D1*
X643211Y2499667D1*
X643224Y695655D1*
X649606Y696098D1*
X656879Y695526D1*
X662478Y694245D1*
X664445Y703344D1*
X667236Y710084D1*
X671049Y716303D1*
X675786Y721852D1*
X681335Y726589D1*
X687554Y730402D1*
X694294Y733193D1*
X701388Y734896D1*
X708661Y735469D1*
X715934Y734896D1*
X723029Y733193D1*
X729769Y730402D1*
X735988Y726589D1*
X741537Y721852D1*
X746274Y716303D1*
X750087Y710084D1*
X752878Y703344D1*
X754581Y696249D1*
X755154Y688976D1*
X754581Y681703D1*
X752878Y674609D1*
X750087Y667869D1*
X746274Y661650D1*
X741643Y656217D1*
X741650Y353283D1*
X750902Y353264D1*
Y237287D1*
X544816D1*
X544799Y112024D1*
X581496Y111728D1*
X790432D1*
X790437Y266650D1*
X926098D1*
Y111718D1*
X2230471Y111728D1*
X2619172Y500470D1*
X2619177Y630823D1*
X2813894D1*
Y480786D1*
X2995531Y299152D1*
X3028052Y299130D1*
X3344718Y615635D1*
X3351165Y619944D1*
X3358441Y622627D1*
X3366142Y623539D1*
X3366475Y623526D1*
X3372343Y623539D1*
X3369110Y631383D1*
X3366950Y640381D1*
X3366224Y649606D1*
X3366950Y658832D1*
X3369110Y667829D1*
X3372652Y676379D1*
X3377487Y684269D1*
X3383497Y691306D1*
X3390534Y697316D1*
X3398424Y702151D1*
X3406974Y705693D1*
X3415971Y707853D1*
X3425197Y708579D1*
X3434423Y707853D1*
X3443420Y705693D1*
X3451970Y702151D1*
X3459860Y697316D1*
X3466896Y691306D1*
X3472907Y684269D1*
X3474042Y682570D1*
X3702297Y682594D1*
X3702248Y705626D1*
X3814287D1*
Y684287D1*
X3818656Y689218D1*
X3825299Y694895D1*
X3825280Y761765D1*
X3818656Y767475D1*
X3814298Y772445D1*
X3814287Y751067D1*
X3702248D1*
Y774064D1*
X3474039Y774098D1*
X3470039Y768787D1*
X3463496Y762244D1*
X3456010Y756804D1*
X3447765Y752604D1*
X3438963Y749744D1*
X3429824Y748297D1*
X3420570D1*
X3411430Y749744D1*
X3402629Y752604D1*
X3394383Y756804D1*
X3386898Y762244D1*
X3380354Y768787D1*
X3374915Y776273D1*
X3370714Y784518D1*
X3367854Y793320D1*
X3366407Y802459D1*
Y811714D1*
X3367854Y820853D1*
X3370714Y829655D1*
X3374915Y837900D1*
X3380354Y845386D1*
X3386898Y851929D1*
X3394383Y857369D1*
X3402629Y861570D1*
X3411430Y864429D1*
X3420570Y865877D1*
X3429824D1*
X3438963Y864429D1*
X3447765Y861570D1*
X3456010Y857369D1*
X3463496Y851929D1*
X3470039Y845386D1*
X3474042Y840050D1*
X3702297Y840075D1*
X3702248Y863106D1*
X3814287D1*
Y841768D1*
X3818656Y846698D1*
X3825299Y852375D1*
X3825280Y919245D1*
X3818656Y924955D1*
X3814298Y929925D1*
X3814287Y908547D1*
X3702248D1*
Y931545D1*
X3474039Y931579D1*
X3470039Y926268D1*
X3463496Y919724D1*
X3456010Y914285D1*
X3447765Y910084D1*
X3438963Y907224D1*
X3429824Y905777D1*
X3420570D1*
X3411430Y907224D1*
X3402629Y910084D1*
X3394383Y914285D1*
X3386898Y919724D1*
X3380354Y926268D1*
X3374915Y933753D1*
X3370714Y941999D1*
X3367854Y950801D1*
X3366407Y959940D1*
Y969194D1*
X3367854Y978333D1*
X3370714Y987135D1*
X3374915Y995381D1*
X3380354Y1002866D1*
X3386898Y1009409D1*
X3394383Y1014849D1*
X3402629Y1019050D1*
X3411430Y1021909D1*
X3420570Y1023357D1*
X3429824D1*
X3438963Y1021909D1*
X3447765Y1019050D1*
X3456010Y1014849D1*
X3463496Y1009409D1*
X3470039Y1002866D1*
X3474042Y997530D1*
X3702297Y997555D1*
X3702248Y1020587D1*
X3814287D1*
Y999248D1*
X3819778Y1005217D1*
X3819768Y1321690D1*
X3813144Y1327318D1*
X3807434Y1334001D1*
X3802843Y1341497D1*
X3799478Y1349618D1*
X3797427Y1358165D1*
X3796736Y1366929D1*
X3797420Y1375642D1*
X3222948Y1950230D1*
X3218639Y1956677D1*
X3215954Y1963953D1*
X3215043Y1971654D1*
X3215056Y1971987D1*
X3215043Y2577854D1*
X3188075Y2577839D1*
Y2593219D1*
X3183273Y2589289D1*
X3175251Y2584374D1*
X3166559Y2580773D1*
X3157411Y2578576D1*
X3148031Y2577839D1*
X3138652Y2578576D1*
X3129504Y2580773D1*
X3120812Y2584374D1*
X3112790Y2589289D1*
X3105635Y2595399D1*
X3099525Y2602554D1*
X3098064Y2604740D1*
X3093623Y2598857D1*
X3086970Y2592203D1*
X3079358Y2586673D1*
X3070976Y2582403D1*
X3062028Y2579495D1*
X3052736Y2578024D1*
X3043327D1*
X3034035Y2579495D1*
X3025087Y2582403D1*
X3016705Y2586673D1*
X3009093Y2592203D1*
X3002440Y2598857D1*
X2996909Y2606469D1*
X2992639Y2614850D1*
X2989731Y2623799D1*
X2988260Y2633091D1*
Y2642500D1*
X2989731Y2651791D1*
X2992639Y2660740D1*
X2996909Y2669122D1*
X2998146Y2670972D1*
X2815508Y2853588D1*
X2814206Y2845846D1*
X2811298Y2836898D1*
X2807028Y2828516D1*
X2801497Y2820904D1*
X2794844Y2814251D1*
X2788961Y2809875D1*
X2794844Y2805434D1*
X2801497Y2798781D1*
X2807028Y2791169D1*
X2811298Y2782787D1*
X2814206Y2773839D1*
X2815677Y2764547D1*
Y2755138D1*
X2814206Y2745846D1*
X2811298Y2736898D1*
X2807028Y2728516D1*
X2801497Y2720904D1*
X2794844Y2714251D1*
X2788961Y2709875D1*
X2794844Y2705434D1*
X2801497Y2698781D1*
X2807028Y2691169D1*
X2811298Y2682787D1*
X2814206Y2673839D1*
X2815677Y2664547D1*
Y2655138D1*
X2814206Y2645846D1*
X2811298Y2636898D1*
X2807028Y2628516D1*
X2801497Y2620904D1*
X2794844Y2614251D1*
X2788961Y2609875D1*
X2794844Y2605434D1*
X2801497Y2598781D1*
X2807028Y2591169D1*
X2811298Y2582787D1*
X2814206Y2573839D1*
X2815677Y2564547D1*
Y2555138D1*
X2814206Y2545846D1*
X2811298Y2536898D1*
X2807028Y2528516D1*
X2801497Y2520904D1*
X2794844Y2514251D1*
X2788961Y2509875D1*
X2794844Y2505434D1*
X2801497Y2498781D1*
X2807028Y2491169D1*
X2811298Y2482787D1*
X2814206Y2473839D1*
X2815677Y2464547D1*
Y2455138D1*
X2814206Y2445846D1*
X2811298Y2436898D1*
X2807028Y2428516D1*
X2801497Y2420904D1*
X2794844Y2414251D1*
X2788961Y2409875D1*
X2794844Y2405434D1*
X2801497Y2398781D1*
X2807028Y2391169D1*
X2811298Y2382787D1*
X2814206Y2373839D1*
X2815677Y2364547D1*
Y2355138D1*
X2814206Y2345846D1*
X2811298Y2336898D1*
X2807028Y2328516D1*
X2801497Y2320904D1*
X2794844Y2314251D1*
X2788961Y2309875D1*
X2794844Y2305434D1*
X2801497Y2298781D1*
X2807028Y2291169D1*
X2811298Y2282787D1*
X2814206Y2273839D1*
X2815677Y2264547D1*
Y2255138D1*
X2815199Y2251102D1*
X2944097Y2122240D1*
X2952756Y2122949D1*
X2961520Y2122259D1*
X2970067Y2120207D1*
X2978188Y2116843D1*
X2985684Y2112251D1*
X2992367Y2106541D1*
X2998077Y2099857D1*
X3002669Y2092361D1*
X3006034Y2084240D1*
X3008085Y2075693D1*
X3008776Y2066929D1*
X3008085Y2058165D1*
X3006034Y2049618D1*
X3002669Y2041497D1*
X2998077Y2034001D1*
X2992367Y2027318D1*
X2985684Y2021608D1*
X2978017Y2016936D1*
X2985684Y2012251D1*
X2992367Y2006541D1*
X2998077Y1999857D1*
X3002669Y1992361D1*
X3006034Y1984240D1*
X3008085Y1975693D1*
X3008776Y1966929D1*
X3008085Y1958165D1*
X3006034Y1949618D1*
X3002669Y1941497D1*
X2998077Y1934001D1*
X2992367Y1927318D1*
X2985684Y1921608D1*
X2978017Y1916936D1*
X2985684Y1912251D1*
X2992367Y1906541D1*
X2998077Y1899857D1*
X3002669Y1892361D1*
X3006034Y1884240D1*
X3008085Y1875693D1*
X3008776Y1866929D1*
X3008085Y1858165D1*
X3006034Y1849618D1*
X3002669Y1841497D1*
X2998077Y1834001D1*
X2992367Y1827318D1*
X2985684Y1821608D1*
X2978017Y1816936D1*
X2985684Y1812251D1*
X2992367Y1806541D1*
X2998077Y1799857D1*
X3002669Y1792361D1*
X3006034Y1784240D1*
X3008085Y1775693D1*
X3008776Y1766929D1*
X3008085Y1758165D1*
X3006034Y1749618D1*
X3002669Y1741497D1*
X2998077Y1734001D1*
X2992367Y1727318D1*
X2985684Y1721608D1*
X2978017Y1716936D1*
X2985684Y1712251D1*
X2992367Y1706541D1*
X2998077Y1699857D1*
X3002669Y1692361D1*
X3006034Y1684240D1*
X3008085Y1675693D1*
X3008776Y1666929D1*
X3008085Y1658165D1*
X3006034Y1649618D1*
X3002669Y1641497D1*
X2998077Y1634001D1*
X2992367Y1627318D1*
X2985684Y1621608D1*
X2978017Y1616936D1*
X2985684Y1612251D1*
X2992367Y1606541D1*
X2998077Y1599857D1*
X3002669Y1592361D1*
X3006034Y1584240D1*
X3008085Y1575693D1*
X3008776Y1566929D1*
X3008085Y1558165D1*
X3006034Y1549618D1*
X3002669Y1541497D1*
X2998077Y1534001D1*
X2992367Y1527318D1*
X2985684Y1521608D1*
X2978017Y1516936D1*
X2985684Y1512251D1*
X2992367Y1506541D1*
X2998077Y1499857D1*
X3002669Y1492361D1*
X3006034Y1484240D1*
X3008085Y1475693D1*
X3008776Y1466929D1*
X3008085Y1458165D1*
X3006034Y1449618D1*
X3002669Y1441497D1*
X2998077Y1434001D1*
X2992367Y1427318D1*
X2985684Y1421608D1*
X2978017Y1416936D1*
X2985684Y1412251D1*
X2992367Y1406541D1*
X2998077Y1399857D1*
X3002669Y1392361D1*
X3006034Y1384240D1*
X3008085Y1375693D1*
X3008776Y1366929D1*
X3008085Y1358165D1*
X3006034Y1349618D1*
X3002669Y1341497D1*
X2998077Y1334001D1*
X2992367Y1327318D1*
X2985684Y1321608D1*
X2978188Y1317016D1*
X2970067Y1313651D1*
X2961520Y1311600D1*
X2952756Y1310909D1*
X2943992Y1311600D1*
X2935445Y1313651D1*
X2927324Y1317016D1*
X2919828Y1321608D1*
X2913144Y1327318D1*
X2907434Y1334001D1*
X2902843Y1341497D1*
X2899520Y1349505D1*
X2900680Y1342231D1*
Y1334934D1*
X2899538Y1327730D1*
X2897283Y1320791D1*
X2893971Y1314290D1*
X2889684Y1308388D1*
X2887312Y1305823D1*
X2887319Y1095760D1*
X2891944Y1090319D1*
X2895756Y1084100D1*
X2898547Y1077360D1*
X2900251Y1070265D1*
X2900823Y1062992D1*
X2900251Y1055719D1*
X2898547Y1048625D1*
X2895756Y1041885D1*
X2891944Y1035665D1*
X2887206Y1030117D1*
X2881657Y1025379D1*
X2875438Y1021567D1*
X2868698Y1018776D1*
X2861604Y1017072D1*
X2854331Y1016500D1*
X2847058Y1017072D1*
X2839963Y1018776D1*
X2833223Y1021567D1*
X2827004Y1025379D1*
X2821455Y1030117D1*
X2816718Y1035665D1*
X2812906Y1041885D1*
X2810114Y1048625D1*
X2808411Y1055719D1*
X2807839Y1062992D1*
X2808411Y1070265D1*
X2810114Y1077360D1*
X2812906Y1084100D1*
X2816718Y1090319D1*
X2821349Y1095752D1*
X2821343Y1305815D1*
X2816718Y1311256D1*
X2812906Y1317475D1*
X2810114Y1324215D1*
X2808470Y1331016D1*
X2804412Y1324601D1*
X2798302Y1317446D1*
X2791147Y1311336D1*
X2788961Y1309875D1*
X2794844Y1305434D1*
X2801497Y1298781D1*
X2807028Y1291169D1*
X2811298Y1282787D1*
X2814206Y1273839D1*
X2815677Y1264547D1*
Y1255138D1*
X2815497Y2953622D2*
X2814589Y2947776D1*
X2824185Y2944911D1*
X2815518Y2953577D1*
X2823427Y2938975D1*
X3068117Y2694283D1*
X3075251Y2691217D1*
X3081882Y2687231D1*
X2824185Y2944911D1*
X2815677Y3055138D2*
X2814589Y3047776D1*
X3168106Y2694294D1*
X3175251Y2691217D1*
X3183273Y2686302D1*
X3188064Y2682375D1*
X3188075Y2697752D1*
X3200526D1*
X2807028Y3091169D1*
X2811298Y3082787D1*
X2814206Y3073839D1*
X2815677Y3064547D1*
Y3055138D1*
X415677Y1255138D2*
X414206Y1245846D1*
X411298Y1236898D1*
X407028Y1228516D1*
X401497Y1220904D1*
X394844Y1214251D1*
X387232Y1208720D1*
X378850Y1204450D1*
X369902Y1201542D1*
X360610Y1200071D1*
X351201D1*
X341909Y1201542D1*
X332961Y1204450D1*
X324579Y1208720D1*
X316967Y1214251D1*
X310314Y1220904D1*
X305938Y1226787D1*
X301497Y1220904D1*
X294844Y1214251D1*
X287232Y1208720D1*
X278850Y1204450D1*
X269902Y1201542D1*
X260610Y1200071D1*
X251201D1*
X242937Y1201339D1*
X511976Y932314D1*
X519084Y931747D1*
X526178Y930043D1*
X528038Y929357D1*
X528035Y2122180D1*
X423311Y2226887D1*
X406003Y2226854D1*
X401497Y2220904D1*
X394844Y2214251D1*
X388961Y2209875D1*
X394844Y2205434D1*
X401497Y2198781D1*
X407028Y2191169D1*
X411298Y2182787D1*
X414206Y2173839D1*
X415677Y2164547D1*
Y2155138D1*
X414206Y2145846D1*
X411298Y2136898D1*
X407028Y2128516D1*
X401497Y2120904D1*
X394844Y2114251D1*
X388961Y2109875D1*
X394844Y2105434D1*
X401497Y2098781D1*
X407028Y2091169D1*
X411298Y2082787D1*
X414206Y2073839D1*
X415677Y2064547D1*
Y2055138D1*
X414206Y2045846D1*
X411298Y2036898D1*
X407028Y2028516D1*
X401497Y2020904D1*
X394844Y2014251D1*
X388961Y2009875D1*
X394844Y2005434D1*
X401497Y1998781D1*
X407028Y1991169D1*
X411298Y1982787D1*
X414206Y1973839D1*
X415677Y1964547D1*
Y1955138D1*
X414206Y1945846D1*
X411298Y1936898D1*
X407028Y1928516D1*
X401497Y1920904D1*
X394844Y1914251D1*
X388961Y1909875D1*
X394844Y1905434D1*
X401497Y1898781D1*
X407028Y1891169D1*
X411298Y1882787D1*
X414206Y1873839D1*
X415677Y1864547D1*
Y1855138D1*
X414206Y1845846D1*
X411298Y1836898D1*
X407028Y1828516D1*
X401497Y1820904D1*
X394844Y1814251D1*
X388961Y1809875D1*
X394844Y1805434D1*
X401497Y1798781D1*
X407028Y1791169D1*
X411298Y1782787D1*
X414206Y1773839D1*
X415677Y1764547D1*
Y1755138D1*
X414206Y1745846D1*
X411298Y1736898D1*
X407028Y1728516D1*
X401497Y1720904D1*
X394844Y1714251D1*
X387232Y1708720D1*
X378850Y1704450D1*
X369902Y1701542D1*
X360610Y1700071D1*
X351201D1*
X341909Y1701542D1*
X332961Y1704450D1*
X324579Y1708720D1*
X316967Y1714251D1*
X310314Y1720904D1*
X305938Y1726787D1*
X301497Y1720904D1*
X294844Y1714251D1*
X288961Y1709875D1*
X294844Y1705434D1*
X301497Y1698781D1*
X307028Y1691169D1*
X311298Y1682787D1*
X314206Y1673839D1*
X315677Y1664547D1*
Y1655138D1*
X314206Y1645846D1*
X311298Y1636898D1*
X307028Y1628516D1*
X301497Y1620904D1*
X294844Y1614251D1*
X288961Y1609875D1*
X294844Y1605434D1*
X301497Y1598781D1*
X305873Y1592898D1*
X310314Y1598781D1*
X316967Y1605434D1*
X324579Y1610965D1*
X332961Y1615235D1*
X341909Y1618143D1*
X351201Y1619614D1*
X360610D1*
X369902Y1618143D1*
X378850Y1615235D1*
X387232Y1610965D1*
X394844Y1605434D1*
X401497Y1598781D1*
X407028Y1591169D1*
X411298Y1582787D1*
X414206Y1573839D1*
X415677Y1564547D1*
Y1555138D1*
X414206Y1545846D1*
X411298Y1536898D1*
X407028Y1528516D1*
X401497Y1520904D1*
X394844Y1514251D1*
X388961Y1509875D1*
X394844Y1505434D1*
X401497Y1498781D1*
X407028Y1491169D1*
X411298Y1482787D1*
X414206Y1473839D1*
X415677Y1464547D1*
Y1455138D1*
X414206Y1445846D1*
X411298Y1436898D1*
X407028Y1428516D1*
X401497Y1420904D1*
X394844Y1414251D1*
X388961Y1409875D1*
X394844Y1405434D1*
X401497Y1398781D1*
X407028Y1391169D1*
X411298Y1382787D1*
X414206Y1373839D1*
X415677Y1364547D1*
Y1355138D1*
X414206Y1345846D1*
X411298Y1336898D1*
X407028Y1328516D1*
X401497Y1320904D1*
X394844Y1314251D1*
X388961Y1309875D1*
X394844Y1305434D1*
X401497Y1298781D1*
X407028Y1291169D1*
X411298Y1282787D1*
X414206Y1273839D1*
X415677Y1264547D1*
Y1255138D1*
X305938Y2092898D2*
X310314Y2098781D1*
X316967Y2105434D1*
X322850Y2109810D1*
X316967Y2114251D1*
X310314Y2120904D1*
X304783Y2128516D1*
X300513Y2136898D1*
X297605Y2145846D1*
X296134Y2155138D1*
Y2164547D1*
X297605Y2173839D1*
X300513Y2182787D1*
X304783Y2191169D1*
X310314Y2198781D1*
X316967Y2205434D1*
X322850Y2209810D1*
X316967Y2214251D1*
X310314Y2220904D1*
X305938Y2226787D1*
X301497Y2220904D1*
X294844Y2214251D1*
X287232Y2208720D1*
X278850Y2204450D1*
X269902Y2201542D1*
X260610Y2200071D1*
X251201D1*
X241909Y2201542D1*
X232961Y2204450D1*
X224579Y2208720D1*
X216967Y2214251D1*
X210314Y2220904D1*
X204783Y2228516D1*
X200513Y2236898D1*
X197605Y2245846D1*
X196134Y2255138D1*
Y2264547D1*
X197605Y2273839D1*
X200513Y2282787D1*
X204783Y2291169D1*
X210314Y2298781D1*
X216967Y2305434D1*
X222850Y2309810D1*
X216967Y2314251D1*
X210626Y2320566D1*
X104343Y2320555D1*
X98667Y2313932D1*
X91983Y2308222D1*
X84487Y2303630D1*
X76366Y2300265D1*
X67819Y2298214D1*
X59055Y2297524D1*
X50291Y2298214D1*
X41744Y2300265D1*
X38471Y2301472D1*
X38484Y2205634D1*
X45978Y2208016D1*
X54660Y2209390D1*
X63450D1*
X72133Y2208016D1*
X80493Y2205299D1*
X88325Y2201308D1*
X95437Y2196140D1*
X101652Y2189925D1*
X106820Y2182814D1*
X110811Y2174982D1*
X113528Y2166621D1*
X114902Y2157938D1*
Y2149148D1*
X113528Y2140466D1*
X110811Y2132105D1*
X106820Y2124273D1*
X101652Y2117161D1*
X95437Y2110946D1*
X88325Y2105778D1*
X84487Y2103457D1*
X91983Y2098865D1*
X98667Y2093155D1*
X104377Y2086471D1*
X108969Y2078975D1*
X112333Y2070854D1*
X114385Y2062307D1*
X115075Y2053543D1*
X114385Y2044780D1*
X112333Y2036232D1*
X108969Y2028112D1*
X104377Y2020615D1*
X98667Y2013932D1*
X91983Y2008222D1*
X84316Y2003550D1*
X91983Y1998865D1*
X98667Y1993155D1*
X104377Y1986471D1*
X108969Y1978975D1*
X112333Y1970854D1*
X114385Y1962307D1*
X115020Y1959192D1*
X198194Y1876017D1*
X200513Y1882787D1*
X204783Y1891169D1*
X210314Y1898781D1*
X216967Y1905434D1*
X222850Y1909810D1*
X216967Y1914251D1*
X210314Y1920904D1*
X204783Y1928516D1*
X200513Y1936898D1*
X197605Y1945846D1*
X196134Y1955138D1*
Y1964547D1*
X197605Y1973839D1*
X200513Y1982787D1*
X204783Y1991169D1*
X210314Y1998781D1*
X216967Y2005434D1*
X222850Y2009810D1*
X216967Y2014251D1*
X210314Y2020904D1*
X204783Y2028516D1*
X200513Y2036898D1*
X197605Y2045846D1*
X196134Y2055138D1*
Y2064547D1*
X197605Y2073839D1*
X200513Y2082787D1*
X204783Y2091169D1*
X210314Y2098781D1*
X216967Y2105434D1*
X224579Y2110965D1*
X232961Y2115235D1*
X241909Y2118143D1*
X251201Y2119614D1*
X260610D1*
X269902Y2118143D1*
X278850Y2115235D1*
X287232Y2110965D1*
X294844Y2105434D1*
X301497Y2098781D1*
X305873Y2092898D1*
X388961Y2309810D2*
X394844Y2305434D1*
X401497Y2298781D1*
X405934Y2292806D1*
X439596Y2292730D1*
X447202Y2291217D1*
X454244Y2287970D1*
X460335Y2283169D1*
X460560Y2282924D1*
X577276Y2166227D1*
X577248Y2486340D1*
X427672Y2636056D1*
X423364Y2642504D1*
X420678Y2649780D1*
X419768Y2657480D1*
X419781Y2657814D1*
X419768Y2749325D1*
X415125Y2750463D1*
X412928Y2741315D1*
X409327Y2732623D1*
X404412Y2724601D1*
X398302Y2717446D1*
X391147Y2711336D1*
X388961Y2709875D1*
X394844Y2705434D1*
X401497Y2698781D1*
X407028Y2691169D1*
X411298Y2682787D1*
X414206Y2673839D1*
X415677Y2664547D1*
Y2655138D1*
X414206Y2645846D1*
X411298Y2636898D1*
X407028Y2628516D1*
X401497Y2620904D1*
X394844Y2614251D1*
X388961Y2609875D1*
X394844Y2605434D1*
X401497Y2598781D1*
X407028Y2591169D1*
X411298Y2582787D1*
X414206Y2573839D1*
X415677Y2564547D1*
Y2555138D1*
X414206Y2545846D1*
X411298Y2536898D1*
X407028Y2528516D1*
X401497Y2520904D1*
X394844Y2514251D1*
X388961Y2509875D1*
X394844Y2505434D1*
X401497Y2498781D1*
X407028Y2491169D1*
X411298Y2482787D1*
X414206Y2473839D1*
X415677Y2464547D1*
Y2455138D1*
X414206Y2445846D1*
X411298Y2436898D1*
X407028Y2428516D1*
X401497Y2420904D1*
X394844Y2414251D1*
X388961Y2409875D1*
X394844Y2405434D1*
X401497Y2398781D1*
X407028Y2391169D1*
X411298Y2382787D1*
X414206Y2373839D1*
X415677Y2364547D1*
Y2355138D1*
X414206Y2345846D1*
X411298Y2336898D1*
X407028Y2328516D1*
X401497Y2320904D1*
X394844Y2314251D1*
X388961Y2309875D1*
X3074720Y252499D2*
Y173311D1*
X2948902D1*
Y252462D1*
X2729845Y471534D1*
X2683572Y471539D1*
X2265518Y53656D1*
X2259071Y49348D1*
X2251795Y46663D1*
X2244094Y45752D1*
X2243761Y45765D1*
X528908Y45853D1*
X521302Y47366D1*
X514260Y50613D1*
X508169Y55413D1*
X507944Y55659D1*
X486727Y77001D1*
X482419Y83449D1*
X479734Y90724D1*
X479182Y93656D1*
X466748Y95555D1*
X343587D1*
Y266650D1*
X451155D1*
X446096Y270192D1*
X426369Y290828D1*
X66514Y672360D1*
X38463Y672327D1*
X38484Y430927D1*
X40572Y438580D1*
X45467Y450399D1*
X52152Y461307D1*
X60461Y471035D1*
X70189Y479344D1*
X81097Y486029D1*
X92916Y490924D1*
X105357Y493911D1*
X118110Y494915D1*
X130864Y493911D1*
X143304Y490924D1*
X155123Y486029D1*
X166031Y479344D1*
X175760Y471035D1*
X184068Y461307D1*
X190753Y450399D1*
X195648Y438580D1*
X198635Y426139D1*
X199639Y413386D1*
X198635Y400633D1*
X195648Y388192D1*
X190753Y376373D1*
X184068Y365465D1*
X175760Y355736D1*
X166031Y347428D1*
X155123Y340743D1*
X143304Y335848D1*
X130864Y332861D1*
X118110Y331857D1*
X105357Y332861D1*
X92916Y335848D1*
X81097Y340743D1*
X70189Y347428D1*
X60461Y355736D1*
X52152Y365465D1*
X45467Y376373D1*
X40572Y388192D1*
X38469Y396193D1*
X38484Y38484D1*
X3622933D1*
X3622937Y557576D1*
X3379828Y557563D1*
X3306915Y484672D1*
X3315257Y488709D1*
X3327424Y492661D1*
X3340060Y494663D1*
X3352853D1*
X3365490Y492661D1*
X3377656Y488709D1*
X3389055Y482900D1*
X3399406Y475381D1*
X3408451Y466335D1*
X3415971Y455984D1*
X3421780Y444585D1*
X3425732Y432419D1*
X3427734Y419782D1*
Y406990D1*
X3425732Y394353D1*
X3421780Y382186D1*
X3415971Y370787D1*
X3408451Y360437D1*
X3399406Y351391D1*
X3389055Y343871D1*
X3377656Y338063D1*
X3365490Y334110D1*
X3352853Y332109D1*
X3340060D1*
X3327424Y334110D1*
X3315257Y338063D1*
X3303858Y343871D1*
X3293508Y351391D1*
X3284462Y360437D1*
X3276942Y370787D1*
X3271134Y382186D1*
X3267181Y394353D1*
X3265180Y406990D1*
Y419782D1*
X3267181Y432419D1*
X3271134Y444585D1*
X3275341Y453126D1*
X3074688Y252445D1*
X2257661Y1258776D2*
X2361138D1*
Y1189391D1*
X2474285Y1076304D1*
X2758493Y1076194D1*
X2766100Y1074681D1*
X2773142Y1071434D1*
X2779232Y1066634D1*
X2779458Y1066388D1*
X2848320Y997546D1*
X2860378Y997555D1*
X3411921Y1549125D1*
X3411894Y1601106D1*
X3407269Y1606531D1*
X3403457Y1612751D1*
X3400665Y1619491D1*
X3398962Y1626585D1*
X3398390Y1633858D1*
X3398962Y1641131D1*
X3400665Y1648226D1*
X3403457Y1654966D1*
X3407269Y1661185D1*
X3412007Y1666734D1*
X3417555Y1671471D1*
X3423774Y1675283D1*
X3430514Y1678075D1*
X3437609Y1679778D1*
X3444882Y1680350D1*
X3452155Y1679778D1*
X3459249Y1678075D1*
X3465990Y1675283D1*
X3472209Y1671471D1*
X3477757Y1666734D1*
X3482495Y1661185D1*
X3486307Y1654966D1*
X3489098Y1648226D1*
X3490802Y1641131D1*
X3491374Y1633858D1*
X3490802Y1626585D1*
X3489098Y1619491D1*
X3486307Y1612751D1*
X3482495Y1606531D1*
X3477864Y1601098D1*
X3477769Y1532845D1*
X3476256Y1525239D1*
X3473009Y1518197D1*
X3468209Y1512106D1*
X3467963Y1511881D1*
X2895440Y939483D1*
X2888992Y935175D1*
X2881717Y932490D1*
X2874016Y931579D1*
X2873682Y931592D1*
X2832058Y931680D1*
X2824451Y933193D1*
X2817409Y936440D1*
X2814946Y938123D1*
X2813894Y932594D1*
Y798311D1*
X2619177D1*
Y852852D1*
X2010761Y852839D1*
X2010744Y804217D1*
X1847524D1*
Y967437D1*
X2010744D1*
Y918755D1*
X2619222Y918815D1*
X2619177Y957594D1*
X2795008D1*
X2742231Y1010328D1*
X2458042Y1010420D1*
X2450436Y1011933D1*
X2443394Y1015180D1*
X2437303Y1019980D1*
X2437077Y1020226D1*
X2314492Y1142793D1*
X2245161Y1142799D1*
Y1167848D1*
X2146558Y1167799D1*
X2146571Y1140831D1*
X2073280D1*
X1950558Y1018223D1*
X1944110Y1013915D1*
X1936835Y1011231D1*
X1929134Y1010319D1*
X1928801Y1010332D1*
X1490022Y1010319D1*
X1024513Y544790D1*
X1024524Y491224D1*
X904610D1*
Y611138D1*
X997530D1*
X1454954Y1068391D1*
X1461402Y1072699D1*
X1468677Y1075385D1*
X1476378Y1076295D1*
X1476711Y1076282D1*
X1915490Y1076295D1*
X2007005Y1167831D1*
X1812021Y1167900D1*
X1804415Y1169413D1*
X1797373Y1172660D1*
X1791282Y1177461D1*
X1791056Y1177706D1*
X1274129Y1694760D1*
X1269820Y1701207D1*
X1267135Y1708483D1*
X1266224Y1716184D1*
X1266238Y1716517D1*
X1266224Y2636936D1*
X1239256Y2636894D1*
Y2710185D1*
X1029608Y2919803D1*
X1023864Y2913144D1*
X1017180Y2907434D1*
X1009684Y2902843D1*
X1001563Y2899478D1*
X993016Y2897427D1*
X984252Y2896736D1*
X975488Y2897427D1*
X966941Y2899478D1*
X958820Y2902843D1*
X951324Y2907434D1*
X944640Y2913144D1*
X938930Y2919828D1*
X934259Y2927495D1*
X929573Y2919828D1*
X923864Y2913144D1*
X917180Y2907434D1*
X909684Y2902843D1*
X901563Y2899478D1*
X893016Y2897427D1*
X884252Y2896736D1*
X875488Y2897427D1*
X866941Y2899478D1*
X858820Y2902843D1*
X851324Y2907434D1*
X844640Y2913144D1*
X838930Y2919828D1*
X834259Y2927495D1*
X829573Y2919828D1*
X823864Y2913144D1*
X817180Y2907434D1*
X809684Y2902843D1*
X801563Y2899478D1*
X793016Y2897427D1*
X784252Y2896736D1*
X775488Y2897427D1*
X766941Y2899478D1*
X758820Y2902843D1*
X751324Y2907434D1*
X744640Y2913144D1*
X738930Y2919828D1*
X734339Y2927324D1*
X730974Y2935445D1*
X728923Y2943992D1*
X728232Y2952756D1*
X728923Y2961520D1*
X730974Y2970067D1*
X734339Y2978188D1*
X738930Y2985684D1*
X744640Y2992367D1*
X751324Y2998077D1*
X758820Y3002669D1*
X766941Y3006034D1*
X775488Y3008085D1*
X784252Y3008776D1*
X793016Y3008085D1*
X801563Y3006034D1*
X809684Y3002669D1*
X817180Y2998077D1*
X823864Y2992367D1*
X829573Y2985684D1*
X834245Y2978017D1*
X838930Y2985684D1*
X844640Y2992367D1*
X851324Y2998077D1*
X858820Y3002669D1*
X866941Y3006034D1*
X875488Y3008085D1*
X884252Y3008776D1*
X893016Y3008085D1*
X901563Y3006034D1*
X909684Y3002669D1*
X917180Y2998077D1*
X923864Y2992367D1*
X929573Y2985684D1*
X934245Y2978017D1*
X938930Y2985684D1*
X944640Y2992367D1*
X951324Y2998077D1*
X958820Y3002669D1*
X966941Y3006034D1*
X975488Y3008085D1*
X984252Y3008776D1*
X993016Y3008085D1*
X1001563Y3006034D1*
X1009684Y3002669D1*
X1017180Y2998077D1*
X1023864Y2992367D1*
X1029541Y2985724D1*
X1045895Y2985643D1*
X1053501Y2984130D1*
X1060543Y2980883D1*
X1066634Y2976083D1*
X1066860Y2975837D1*
X1285912Y2756803D1*
X1359169Y2756807D1*
Y2636894D1*
X1332168D1*
X1332201Y1729810D1*
X1828320Y1233728D1*
X1877353Y1233776D1*
X1873350Y1240497D1*
X1869749Y1249189D1*
X1867552Y1258337D1*
X1866815Y1267717D1*
X1867552Y1277096D1*
X1869749Y1286244D1*
X1873350Y1294936D1*
X1878265Y1302958D1*
X1884375Y1310113D1*
X1891530Y1316223D1*
X1899552Y1321138D1*
X1908244Y1324739D1*
X1917392Y1326936D1*
X1926772Y1327673D1*
X1936151Y1326936D1*
X1945299Y1324739D1*
X1953991Y1321138D1*
X1962013Y1316223D1*
X1969168Y1310113D1*
X1975278Y1302958D1*
X1980193Y1294936D1*
X1983794Y1286244D1*
X1985991Y1277096D1*
X1986728Y1267717D1*
X1985991Y1258337D1*
X1983794Y1249189D1*
X1980193Y1240497D1*
X1976146Y1233774D1*
X2026669Y1233776D1*
X2026657Y1260744D1*
X2146571D1*
Y1233741D1*
X2245159Y1233776D1*
X2245161Y1258776D1*
X2257661D1*
X3898545Y610714D2*
X3891196Y604285D1*
X3883699Y599693D1*
X3875579Y596328D1*
X3867031Y594277D1*
X3858268Y593587D1*
X3849555Y594270D1*
X3825291Y569978D1*
X3898524Y569980D1*
Y610654D1*
X3885724Y1013348D2*
X3891196Y1009888D1*
X3898545Y1003459D1*
X3898524Y1334580D1*
X3892367Y1327318D1*
X3885724Y1321640D1*
X3885744Y1013365D1*
X1271441Y611138D2*
X1378854D1*
Y595757D1*
X1383656Y599688D1*
X1391678Y604602D1*
X1400370Y608203D1*
X1409518Y610400D1*
X1418898Y611138D1*
X1428277Y610400D1*
X1437425Y608203D1*
X1446117Y604602D1*
X1454139Y599688D1*
X1461294Y593577D1*
X1467404Y586423D1*
X1472319Y578400D1*
X1475920Y569709D1*
X1478117Y560560D1*
X1478854Y551181D1*
X1478117Y541802D1*
X1475920Y532654D1*
X1472319Y523962D1*
X1467404Y515940D1*
X1461294Y508785D1*
X1454139Y502675D1*
X1446117Y497760D1*
X1437425Y494159D1*
X1428277Y491962D1*
X1418898Y491224D1*
X1409518Y491962D1*
X1400370Y494159D1*
X1391678Y497760D1*
X1383656Y502675D1*
X1378865Y506601D1*
X1378854Y491224D1*
X1258941D1*
Y611138D1*
X1271441D1*
X1724197D2*
X1831610D1*
Y595757D1*
X1836412Y599688D1*
X1844434Y604602D1*
X1853126Y608203D1*
X1862274Y610400D1*
X1871654Y611138D1*
X1881033Y610400D1*
X1890181Y608203D1*
X1898873Y604602D1*
X1906895Y599688D1*
X1914050Y593577D1*
X1920160Y586423D1*
X1925075Y578400D1*
X1928676Y569709D1*
X1930873Y560560D1*
X1931610Y551181D1*
X1930873Y541802D1*
X1928676Y532654D1*
X1925075Y523962D1*
X1920160Y515940D1*
X1914050Y508785D1*
X1906895Y502675D1*
X1898873Y497760D1*
X1890181Y494159D1*
X1881033Y491962D1*
X1871654Y491224D1*
X1862274Y491962D1*
X1853126Y494159D1*
X1844434Y497760D1*
X1836412Y502675D1*
X1831621Y506601D1*
X1831610Y491224D1*
X1711697D1*
Y611138D1*
X1724197D1*
X2078528Y2756807D2*
X2185941D1*
Y2636894D1*
X2066028D1*
Y2652274D1*
X2061226Y2648344D1*
X2053203Y2643429D1*
X2044512Y2639828D1*
X2035364Y2637631D1*
X2025984Y2636894D1*
X2016605Y2637631D1*
X2007457Y2639828D1*
X1998765Y2643429D1*
X1990743Y2648344D1*
X1983588Y2654454D1*
X1977478Y2661609D1*
X1972563Y2669631D1*
X1968962Y2678323D1*
X1966765Y2687471D1*
X1966028Y2696850D1*
X1966765Y2706230D1*
X1968962Y2715378D1*
X1972563Y2724070D1*
X1977478Y2732092D1*
X1983588Y2739247D1*
X1990743Y2745357D1*
X1998765Y2750272D1*
X2007457Y2753873D1*
X2016605Y2756070D1*
X2025984Y2756807D1*
X2035364Y2756070D1*
X2044512Y2753873D1*
X2053203Y2750272D1*
X2061226Y2745357D1*
X2066017Y2741430D1*
X2066028Y2756807D1*
X2078528D1*
X38436Y784366D2*
X115075D1*
Y761367D1*
X199438Y761234D1*
X207045Y759720D1*
X214087Y756474D1*
X220177Y751673D1*
X220403Y751428D1*
X275730Y696119D1*
X282864Y695526D1*
X289958Y693823D1*
X296698Y691031D1*
X302917Y687219D1*
X308466Y682482D1*
X313203Y676933D1*
X317016Y670714D1*
X319807Y663974D1*
X321510Y656879D1*
X322083Y649606D1*
X321510Y642333D1*
X319807Y635239D1*
X317016Y628499D1*
X313203Y622280D1*
X308466Y616731D1*
X302917Y611993D1*
X296698Y608181D1*
X289958Y605390D1*
X282864Y603686D1*
X275591Y603114D1*
X268318Y603686D1*
X261223Y605390D1*
X254483Y608181D1*
X248264Y611993D1*
X242715Y616731D1*
X237978Y622280D1*
X234165Y628499D1*
X231374Y635239D1*
X229671Y642333D1*
X229105Y649450D1*
X183176Y695367D1*
X135474Y695358D1*
X469575Y341175D1*
X469571Y353264D1*
X528018D1*
X528035Y842297D1*
X522664Y840619D1*
X515459Y839478D1*
X508163D1*
X500958Y840619D1*
X494020Y842874D1*
X487518Y846186D1*
X481617Y850474D1*
X476458Y855633D1*
X472171Y861534D1*
X468858Y868035D1*
X466604Y874974D1*
X465462Y882178D1*
X465325Y885671D1*
X355592Y995394D1*
X104301Y995358D1*
X98667Y988735D1*
X91983Y983025D1*
X84316Y978353D1*
X91983Y973668D1*
X98667Y967958D1*
X104344Y961315D1*
X215974Y961234D1*
X223580Y959720D1*
X230622Y956474D1*
X236713Y951673D1*
X236938Y951428D1*
X354483Y833902D1*
X361604Y833322D1*
X368698Y831618D1*
X375438Y828827D1*
X381657Y825014D1*
X387206Y820277D1*
X391944Y814728D1*
X395756Y808509D1*
X398547Y801769D1*
X400251Y794675D1*
X400823Y787402D1*
X400251Y780129D1*
X398547Y773034D1*
X395756Y766294D1*
X391944Y760075D1*
X387206Y754526D1*
X381657Y749789D1*
X375438Y745976D1*
X368698Y743185D1*
X361604Y741482D1*
X354331Y740909D1*
X347058Y741482D1*
X339963Y743185D1*
X333223Y745976D1*
X327004Y749789D1*
X321455Y754526D1*
X316718Y760075D1*
X312906Y766294D1*
X310114Y773034D1*
X308411Y780129D1*
X307845Y787245D1*
X199699Y895381D1*
X104353Y895358D1*
X98667Y888735D1*
X91983Y883025D1*
X84487Y878433D1*
X76366Y875068D1*
X67819Y873017D1*
X59055Y872327D1*
X50291Y873017D1*
X41744Y875068D1*
X38471Y876276D1*
X38484Y784345D1*
X38471Y1080417D2*
X45978Y1082819D1*
X54660Y1084193D1*
X63450D1*
X72133Y1082819D1*
X80493Y1080102D1*
X88325Y1076112D1*
X95437Y1070944D1*
X101652Y1064728D1*
X104344Y1061315D1*
X194795Y1061570D1*
X192004Y1068310D1*
X190301Y1075404D1*
X189735Y1082521D1*
X132396Y1139993D1*
X128088Y1146441D1*
X125403Y1153717D1*
X124492Y1161417D1*
X124505Y1161751D1*
X124492Y1758049D1*
X80493Y1801787D1*
X72133Y1799071D1*
X63450Y1797697D1*
X54660D1*
X45978Y1799071D1*
X38471Y1801472D1*
X38484Y1709539D1*
X115075Y1709563D1*
Y1597524D1*
X38463D1*
X38484Y1380438D1*
X45978Y1382819D1*
X54660Y1384193D1*
X63450D1*
X72133Y1382819D1*
X80493Y1380102D1*
X88325Y1376112D1*
X95437Y1370944D1*
X101652Y1364728D1*
X106820Y1357617D1*
X110811Y1349785D1*
X113528Y1341424D1*
X114902Y1332741D1*
Y1323951D1*
X113528Y1315269D1*
X110811Y1306908D1*
X106820Y1299076D1*
X101652Y1291965D1*
X95437Y1285749D1*
X88325Y1280581D1*
X84487Y1278260D1*
X91983Y1273668D1*
X98667Y1267958D1*
X104377Y1261274D1*
X108969Y1253778D1*
X112333Y1245657D1*
X114385Y1237110D1*
X115075Y1228346D1*
X114385Y1219583D1*
X112333Y1211035D1*
X108969Y1202915D1*
X104377Y1195419D1*
X98667Y1188735D1*
X91983Y1183025D1*
X84487Y1178433D1*
X76366Y1175068D1*
X67819Y1173017D1*
X59055Y1172327D1*
X50291Y1173017D1*
X41744Y1175068D1*
X38471Y1176276D1*
X38484Y1080438D1*
X1478333Y1322157D2*
X1476894Y1309744D1*
X1474503Y1297479D1*
X1471175Y1285433D1*
X1466930Y1273678D1*
X1461794Y1262286D1*
X1455797Y1251323D1*
X1448974Y1240853D1*
X1441365Y1230938D1*
X1433017Y1221639D1*
X1423978Y1213010D1*
X1414301Y1205102D1*
X1404045Y1197961D1*
X1393270Y1191631D1*
X1382039Y1186148D1*
X1370421Y1181546D1*
X1358483Y1177852D1*
X1346297Y1175085D1*
X1333932Y1173266D1*
X1321465Y1172403D1*
X1308969Y1172501D1*
X1296517Y1173562D1*
X1284184Y1175576D1*
X1272042Y1178533D1*
X1260163Y1182416D1*
X1248618Y1187201D1*
X1237476Y1192860D1*
X1226802Y1199360D1*
X1216660Y1206660D1*
X1207110Y1214720D1*
X1198207Y1223491D1*
X1190007Y1232921D1*
X1182556Y1242954D1*
X1175899Y1253530D1*
X1170075Y1264587D1*
X1165119Y1276059D1*
X1161060Y1287878D1*
X1157923Y1299975D1*
X1155726Y1312277D1*
X1154482Y1324713D1*
X1154197Y1337206D1*
X1154875Y1349684D1*
X1156512Y1362073D1*
X1159096Y1374301D1*
X1162613Y1386293D1*
X1167042Y1397978D1*
X1172357Y1409287D1*
X1178528Y1420156D1*
X1185514Y1430517D1*
X1193278Y1440310D1*
X1201773Y1449475D1*
X1210946Y1457962D1*
X1220747Y1465717D1*
X1231114Y1472694D1*
X1241987Y1478853D1*
X1253302Y1484159D1*
X1264992Y1488576D1*
X1276987Y1492083D1*
X1289217Y1494656D1*
X1301608Y1496281D1*
X1314087Y1496946D1*
X1326580Y1496651D1*
X1339013Y1495395D1*
X1351314Y1493186D1*
X1363407Y1490038D1*
X1375223Y1485969D1*
X1386690Y1481001D1*
X1397743Y1475168D1*
X1408312Y1468501D1*
X1418339Y1461041D1*
X1427760Y1452831D1*
X1436522Y1443921D1*
X1444573Y1434364D1*
X1451866Y1424214D1*
X1458356Y1413534D1*
X1464004Y1402387D1*
X1468778Y1390837D1*
X1472650Y1378955D1*
X1475596Y1366811D1*
X1477600Y1354475D1*
X1478815Y1334646D1*
X1478333Y1322157D1*
X3397425Y2559957D2*
X3504839D1*
Y2440043D1*
X3477837D1*
X3477870Y1942236D1*
X3482495Y1936776D1*
X3486307Y1930556D1*
X3489098Y1923816D1*
X3490802Y1916722D1*
X3491374Y1909449D1*
X3490802Y1902176D1*
X3489098Y1895081D1*
X3486307Y1888341D1*
X3482495Y1882122D1*
X3477757Y1876573D1*
X3472209Y1871836D1*
X3465990Y1868024D1*
X3459249Y1865232D1*
X3452155Y1863529D1*
X3444882Y1862957D1*
X3437609Y1863529D1*
X3430514Y1865232D1*
X3423774Y1868024D1*
X3417555Y1871836D1*
X3412007Y1876573D1*
X3407269Y1882122D1*
X3403457Y1888341D1*
X3400665Y1895081D1*
X3398962Y1902176D1*
X3398390Y1909449D1*
X3398962Y1916722D1*
X3400665Y1923816D1*
X3403457Y1930556D1*
X3407269Y1936776D1*
X3411900Y1942209D1*
X3411894Y2440064D1*
X3384925Y2440043D1*
Y2559957D1*
X3397425D1*
X3100129Y802459D2*
X3098681Y793320D1*
X3095822Y784518D1*
X3091621Y776273D1*
X3086181Y768787D1*
X3079638Y762244D1*
X3072152Y756804D1*
X3063907Y752604D1*
X3055105Y749744D1*
X3045966Y748297D1*
X3036711D1*
X3027572Y749744D1*
X3018770Y752604D1*
X3010525Y756804D1*
X3003039Y762244D1*
X2996496Y768787D1*
X2991056Y776273D1*
X2986856Y784518D1*
X2983996Y793320D1*
X2982549Y802459D1*
Y811714D1*
X2983996Y820853D1*
X2986856Y829655D1*
X2991056Y837900D1*
X2996496Y845386D1*
X3003039Y851929D1*
X3010525Y857369D1*
X3018770Y861570D1*
X3027572Y864429D1*
X3036711Y865877D1*
X3045966D1*
X3055105Y864429D1*
X3063907Y861570D1*
X3072152Y857369D1*
X3079638Y851929D1*
X3086181Y845386D1*
X3091621Y837900D1*
X3095822Y829655D1*
X3098681Y820853D1*
X3100129Y811714D1*
Y802459D1*
Y959940D2*
X3098681Y950801D1*
X3095822Y941999D1*
X3091621Y933753D1*
X3086181Y926268D1*
X3079638Y919724D1*
X3072152Y914285D1*
X3063907Y910084D1*
X3055105Y907224D1*
X3045966Y905777D1*
X3036711D1*
X3027572Y907224D1*
X3018770Y910084D1*
X3010525Y914285D1*
X3003039Y919724D1*
X2996496Y926268D1*
X2991056Y933753D1*
X2986856Y941999D1*
X2983996Y950801D1*
X2982549Y959940D1*
Y969194D1*
X2983996Y978333D1*
X2986856Y987135D1*
X2991056Y995381D1*
X2996496Y1002866D1*
X3003039Y1009409D1*
X3010525Y1014849D1*
X3018770Y1019050D1*
X3027572Y1021909D1*
X3036711Y1023357D1*
X3045966D1*
X3055105Y1021909D1*
X3063907Y1019050D1*
X3072152Y1014849D1*
X3079638Y1009409D1*
X3086181Y1002866D1*
X3091621Y995381D1*
X3095822Y987135D1*
X3098681Y978333D1*
X3100129Y969194D1*
Y959940D1*
X3427734Y2808564D2*
X3425732Y2795928D1*
X3421780Y2783761D1*
X3415971Y2772362D1*
X3408451Y2762012D1*
X3399406Y2752966D1*
X3389055Y2745446D1*
X3377656Y2739638D1*
X3365490Y2735685D1*
X3352853Y2733684D1*
X3340060D1*
X3327424Y2735685D1*
X3315257Y2739638D1*
X3303858Y2745446D1*
X3293508Y2752966D1*
X3284462Y2762012D1*
X3276942Y2772362D1*
X3271134Y2783761D1*
X3267181Y2795928D1*
X3265180Y2808564D1*
Y2821357D1*
X3267181Y2833993D1*
X3271134Y2846160D1*
X3276942Y2857559D1*
X3284462Y2867909D1*
X3293508Y2876955D1*
X3303858Y2884475D1*
X3315257Y2890283D1*
X3327424Y2894236D1*
X3340060Y2896238D1*
X3352853D1*
X3365490Y2894236D1*
X3377656Y2890283D1*
X3389055Y2884475D1*
X3399406Y2876955D1*
X3408451Y2867909D1*
X3415971Y2857559D1*
X3421780Y2846160D1*
X3425732Y2833993D1*
X3427734Y2821357D1*
Y2808564D1*
X3747136Y1945171D2*
X3745995Y1937966D1*
X3743740Y1931028D1*
X3740428Y1924526D1*
X3736140Y1918625D1*
X3733769Y1916059D1*
X3733776Y1705996D1*
X3738400Y1700555D1*
X3742213Y1694336D1*
X3745004Y1687596D1*
X3746707Y1680501D1*
X3747280Y1673228D1*
X3746707Y1665955D1*
X3745004Y1658861D1*
X3742213Y1652121D1*
X3738400Y1645902D1*
X3733663Y1640353D1*
X3728114Y1635615D1*
X3721895Y1631803D1*
X3715155Y1629012D1*
X3708060Y1627308D1*
X3700787Y1626736D1*
X3693514Y1627308D1*
X3686420Y1629012D1*
X3679680Y1631803D1*
X3673461Y1635615D1*
X3667912Y1640353D1*
X3663175Y1645902D1*
X3659362Y1652121D1*
X3656571Y1658861D1*
X3654867Y1665955D1*
X3654295Y1673228D1*
X3654867Y1680501D1*
X3656571Y1687596D1*
X3659362Y1694336D1*
X3663175Y1700555D1*
X3667806Y1705988D1*
X3667799Y1916051D1*
X3663175Y1921492D1*
X3659362Y1927711D1*
X3656571Y1934451D1*
X3654867Y1941546D1*
X3654295Y1948819D1*
X3654867Y1956092D1*
X3656571Y1963186D1*
X3659362Y1969927D1*
X3663175Y1976146D1*
X3667912Y1981694D1*
X3673461Y1986432D1*
X3679680Y1990244D1*
X3686420Y1993035D1*
X3693514Y1994739D1*
X3700787Y1995311D1*
X3708060Y1994739D1*
X3715155Y1993035D1*
X3721895Y1990244D1*
X3728114Y1986432D1*
X3733663Y1981694D1*
X3738400Y1976146D1*
X3742213Y1969927D1*
X3745004Y1963186D1*
X3746707Y1956092D1*
X3747280Y1948819D1*
X3747136Y1945171D1*
D16*
X2755906Y1259843D3*
Y1359843D3*
Y1459843D3*
Y1559843D3*
Y1659843D3*
Y1759843D3*
Y1859843D3*
Y1959843D3*
Y2059843D3*
Y2159843D3*
Y2259843D3*
Y2359843D3*
Y2459843D3*
Y2559843D3*
Y2659843D3*
Y2759843D3*
Y2859843D3*
Y2959843D3*
Y3059843D3*
X2655906D3*
Y2959843D3*
Y2859843D3*
Y2759843D3*
Y2659843D3*
Y2559843D3*
Y2459843D3*
Y2359843D3*
Y2259843D3*
Y2159843D3*
Y2059843D3*
Y1959843D3*
Y1859843D3*
Y1759843D3*
Y1659843D3*
Y1559843D3*
Y1459843D3*
Y1359843D3*
Y1259843D3*
X355906D3*
Y1359843D3*
Y1459843D3*
Y1559843D3*
Y1659843D3*
Y1759843D3*
Y1859843D3*
Y1959843D3*
Y2059843D3*
Y2159843D3*
Y2259843D3*
Y2359843D3*
Y2459843D3*
Y2559843D3*
Y2659843D3*
Y2759843D3*
Y2859843D3*
Y2959843D3*
Y3059843D3*
X255906D3*
Y2959843D3*
Y2859843D3*
Y2759843D3*
Y2659843D3*
Y2559843D3*
Y2459843D3*
Y2359843D3*
Y2259843D3*
Y2159843D3*
Y2059843D3*
Y1959843D3*
Y1859843D3*
Y1759843D3*
Y1659843D3*
Y1559843D3*
Y1459843D3*
Y1359843D3*
Y1259843D3*
Y159843D3*
X2755906D3*
Y259843D3*
X255906D3*
D17*
X3011811Y236220D3*
D18*
X3208661D3*
D19*
X2303150Y1200787D3*
D20*
Y1800787D3*
D21*
X3858268Y649606D3*
D22*
X3758268D3*
D21*
X3858268Y807087D3*
D22*
X3758268D3*
D21*
X3858268Y964567D3*
D22*
X3758268D3*
D23*
X2716535Y551181D3*
Y877953D3*
D24*
X1929134Y885827D3*
D25*
X1187402D3*
D26*
X1318898Y551181D3*
D16*
X1418898D3*
X1518898D3*
D26*
X1771654D3*
D16*
X1871654D3*
X1971654D3*
D26*
X2125984Y2696850D3*
D16*
X2025984D3*
X1925984D3*
D26*
X2500000D3*
D16*
X2400000D3*
X2300000D3*
D22*
X59055Y728346D3*
D27*
Y828346D3*
Y928346D3*
Y1028346D3*
Y1128346D3*
Y1228346D3*
Y1328346D3*
X2952756Y2066929D3*
Y1966929D3*
Y1866929D3*
Y1766929D3*
Y1666929D3*
Y1566929D3*
Y1466929D3*
Y1366929D3*
X3852756Y2066929D3*
Y1966929D3*
Y1866929D3*
Y1766929D3*
Y1666929D3*
Y1566929D3*
Y1466929D3*
Y1366929D3*
D22*
X59055Y1653543D3*
D27*
Y1753543D3*
Y1853543D3*
Y1953543D3*
Y2053543D3*
Y2153543D3*
Y2253543D3*
Y2353543D3*
Y2453543D3*
Y2553543D3*
D21*
X984252Y2952756D3*
X884252D3*
X784252D3*
X684252D3*
D28*
X511811Y295276D3*
X561024D3*
X610236D3*
X659449D3*
X708661D3*
X757874D3*
D29*
X411417Y181102D3*
X858268D3*
D26*
X1299213Y2696850D3*
D16*
X1199213D3*
D26*
X964567Y551181D3*
D16*
X1064567D3*
D26*
X2086614Y1200787D3*
D16*
X1926772Y1267717D3*
X2086614Y1334646D3*
X1926772Y1401575D3*
X2086633Y1468504D3*
D30*
X1316496Y1334646D3*
D26*
X3444882Y2500000D3*
D16*
Y2600000D3*
D26*
X3248031Y2637795D3*
D16*
X3148031D3*
X3048031D3*
X2948031D3*
D26*
X1751969Y2696850D3*
D16*
X1651969D3*
X1551969D3*
X1451969D3*
D31*
X3425197Y649606D3*
X3041339D3*
X3425197Y807087D3*
X3041339D3*
X3425197Y964567D3*
X3041339D3*
M02*
